M48
; DRILL file {KiCad (5.1.5-0)} date viernes, 15 de julio de 2022, 17:23:57
; FORMAT={-:-/ absolute / metric / decimal}
; #@! TF.CreationDate,2022-07-15T17:23:57+01:00
; #@! TF.GenerationSoftware,Kicad,Pcbnew,(5.1.5-0)
FMAT,2
METRIC
T1C0.800
T2C1.000
T3C1.520
T4C2.500
%
G90
G05
T1
X5.81Y31.92
X5.885Y29.38
X5.885Y16.68
X8.425Y57.32
X9.06Y11.6
X15.41Y26.205
X16.68Y57.32
X17.95Y52.24
X23.665Y52.24
X24.935Y31.92
X24.935Y10.965
X25.01Y14.14
X26.84Y43.985
X27.475Y16.68
X30.015Y10.965
X31.92Y37.71
X34.46Y43.985
X34.46Y32.555
X36.365Y37.635
X39.446Y26.934
X39.615Y37.635
X42.08Y63.035
X44.62Y43.985
X44.62Y37.635
X46.2Y31.92
X46.525Y12.87
X46.525Y10.33
X47.16Y63.035
X47.795Y16.68
X50.97Y11.6
X56.05Y33.19
X69.385Y16.68
X56.05Y29.38
X61.05Y29.38
X42.08Y77.64
X47.16Y77.64
X43.35Y81.45
X45.89Y81.45
X31.92Y77.64
X37.0Y77.64
X33.19Y81.45
X35.73Y81.45
X52.24Y77.64
X57.32Y77.64
X15.41Y81.45
X17.95Y81.45
X34.46Y29.38
X39.46Y29.38
X12.87Y29.38
X17.87Y29.38
X53.51Y81.45
X56.05Y81.45
X31.5Y72.56
X37.0Y72.56
X11.6Y75.1
X11.6Y72.56
X51.82Y72.56
X57.32Y72.56
X21.34Y72.56
X26.84Y72.56
X21.76Y77.64
X26.84Y77.64
X23.03Y81.45
X25.57Y81.45
X41.66Y72.56
X47.16Y72.56
X66.21Y56.05
X66.21Y53.51
T2
X54.78Y9.06
X57.32Y9.06
X59.86Y9.06
X62.4Y9.06
X66.21Y31.92
X66.21Y29.38
X66.21Y26.84
X66.21Y24.3
X66.21Y21.76
X66.21Y19.22
X66.21Y16.68
X66.21Y14.14
X9.06Y31.92
X9.06Y29.38
X9.06Y26.84
X9.06Y24.3
X9.06Y21.76
X9.06Y19.22
X9.06Y16.68
X9.06Y14.14
X11.6Y9.06
X14.14Y9.06
X16.68Y9.06
X19.22Y9.06
X20.49Y62.4
X20.49Y59.86
X20.49Y57.32
X20.49Y54.78
X20.49Y52.24
X20.49Y49.7
X20.49Y47.16
X20.49Y44.62
X11.6Y66.21
X14.14Y66.21
X16.68Y66.21
X19.22Y66.21
X21.76Y66.21
X24.3Y66.21
X26.84Y66.21
X29.38Y66.21
X31.92Y66.21
X34.46Y66.21
X37.0Y66.21
X39.54Y66.21
X42.08Y66.21
X44.62Y66.21
X47.16Y66.21
X11.6Y40.81
X14.14Y40.81
X16.68Y40.81
X19.22Y40.81
X21.76Y40.81
X24.3Y40.81
X26.84Y40.81
X29.38Y40.81
X31.92Y40.81
X34.46Y40.81
X37.0Y40.81
X39.54Y40.81
X42.08Y40.81
X44.62Y40.81
X47.16Y40.81
X30.65Y31.92
X30.65Y29.38
X30.65Y26.84
X30.65Y24.3
X30.65Y21.76
X30.65Y19.22
X30.65Y16.68
X30.65Y14.14
X43.35Y31.92
X43.35Y29.38
X43.35Y26.84
X43.35Y24.3
X43.35Y21.76
X43.35Y19.22
X43.35Y16.68
X43.35Y14.14
X50.97Y31.92
X50.97Y29.38
X50.97Y26.84
X50.97Y24.3
X50.97Y21.76
X50.97Y19.22
X50.97Y16.68
X50.97Y14.14
X33.19Y9.06
X35.73Y9.06
X38.27Y9.06
X40.81Y9.06
X21.76Y31.92
X21.76Y29.38
X21.76Y26.84
X21.76Y24.3
X21.76Y21.76
X21.76Y19.22
X21.76Y16.68
X21.76Y14.14
T3
X66.21Y47.16
X66.21Y42.08
T4
X70.02Y3.98
X3.98Y81.45
X3.98Y3.98
X70.02Y81.45
T0
M30
