G04 #@! TF.GenerationSoftware,KiCad,Pcbnew,(5.1.5-0)*
G04 #@! TF.CreationDate,2022-07-15T17:24:00+01:00*
G04 #@! TF.ProjectId,Esp32_Cnc_Shield_30Pin,45737033-325f-4436-9e63-5f536869656c,rev?*
G04 #@! TF.SameCoordinates,Original*
G04 #@! TF.FileFunction,Copper,L4,Bot*
G04 #@! TF.FilePolarity,Positive*
%FSLAX46Y46*%
G04 Gerber Fmt 4.6, Leading zero omitted, Abs format (unit mm)*
G04 Created by KiCad (PCBNEW (5.1.5-0)) date 2022-07-15 17:24:00*
%MOMM*%
%LPD*%
G04 APERTURE LIST*
%ADD10C,3.000000*%
%ADD11R,3.000000X3.000000*%
%ADD12O,2.000000X3.000000*%
%ADD13R,2.000000X3.000000*%
%ADD14O,3.000000X2.000000*%
%ADD15R,3.000000X2.000000*%
%ADD16C,1.270000*%
%ADD17C,0.254000*%
G04 APERTURE END LIST*
D10*
X66210000Y47160000D03*
D11*
X66210000Y42080000D03*
D12*
X11600000Y66210000D03*
X14140000Y66210000D03*
X16680000Y66210000D03*
X19220000Y66210000D03*
X21760000Y66210000D03*
X24300000Y66210000D03*
X26840000Y66210000D03*
X29380000Y66210000D03*
X31920000Y66210000D03*
X34460000Y66210000D03*
X37000000Y66210000D03*
X39540000Y66210000D03*
X42080000Y66210000D03*
X44620000Y66210000D03*
D13*
X47160000Y66210000D03*
D12*
X11600000Y40810000D03*
X14140000Y40810000D03*
X16680000Y40810000D03*
X19220000Y40810000D03*
X21760000Y40810000D03*
X24300000Y40810000D03*
X26840000Y40810000D03*
X29380000Y40810000D03*
X31920000Y40810000D03*
X34460000Y40810000D03*
X37000000Y40810000D03*
X39540000Y40810000D03*
X42080000Y40810000D03*
X44620000Y40810000D03*
D13*
X47160000Y40810000D03*
D12*
X52240000Y77640000D03*
X57320000Y77640000D03*
X31920000Y77640000D03*
X37000000Y77640000D03*
X42080000Y77640000D03*
X47160000Y77640000D03*
X21760000Y77640000D03*
X26840000Y77640000D03*
D14*
X20490000Y62400000D03*
X20490000Y59860000D03*
X20490000Y57320000D03*
X20490000Y54780000D03*
X20490000Y52240000D03*
X20490000Y49700000D03*
X20490000Y47160000D03*
D15*
X20490000Y44620000D03*
D12*
X40810000Y9060000D03*
X38270000Y9060000D03*
X35730000Y9060000D03*
D13*
X33190000Y9060000D03*
D12*
X62400000Y9060000D03*
X59860000Y9060000D03*
X57320000Y9060000D03*
D13*
X54780000Y9060000D03*
D12*
X17950000Y81450000D03*
D13*
X15410000Y81450000D03*
D14*
X11600000Y75100000D03*
D15*
X11600000Y72560000D03*
D12*
X19220000Y9060000D03*
X16680000Y9060000D03*
X14140000Y9060000D03*
D13*
X11600000Y9060000D03*
D14*
X43350000Y14140000D03*
X43350000Y16680000D03*
X43350000Y19220000D03*
X43350000Y21760000D03*
X43350000Y24300000D03*
X43350000Y26840000D03*
X43350000Y29380000D03*
D15*
X43350000Y31920000D03*
D12*
X25570000Y81450000D03*
D13*
X23030000Y81450000D03*
D12*
X43350000Y81450000D03*
D13*
X45890000Y81450000D03*
D12*
X56050000Y81450000D03*
D13*
X53510000Y81450000D03*
D14*
X66210000Y14140000D03*
X66210000Y16680000D03*
X66210000Y19220000D03*
X66210000Y21760000D03*
X66210000Y24300000D03*
X66210000Y26840000D03*
X66210000Y29380000D03*
D15*
X66210000Y31920000D03*
D12*
X33190000Y81450000D03*
D13*
X35730000Y81450000D03*
D14*
X21760000Y14140000D03*
X21760000Y16680000D03*
X21760000Y19220000D03*
X21760000Y21760000D03*
X21760000Y24300000D03*
X21760000Y26840000D03*
X21760000Y29380000D03*
D15*
X21760000Y31920000D03*
D14*
X66210000Y56050000D03*
D15*
X66210000Y53510000D03*
D14*
X50970000Y14140000D03*
X50970000Y16680000D03*
X50970000Y19220000D03*
X50970000Y21760000D03*
X50970000Y24300000D03*
X50970000Y26840000D03*
X50970000Y29380000D03*
D15*
X50970000Y31920000D03*
D14*
X30650000Y14140000D03*
X30650000Y16680000D03*
X30650000Y19220000D03*
X30650000Y21760000D03*
X30650000Y24300000D03*
X30650000Y26840000D03*
X30650000Y29380000D03*
D15*
X30650000Y31920000D03*
D14*
X9060000Y14140000D03*
X9060000Y16680000D03*
X9060000Y19220000D03*
X9060000Y21760000D03*
X9060000Y24300000D03*
X9060000Y26840000D03*
X9060000Y29380000D03*
D15*
X9060000Y31920000D03*
D10*
X51820000Y72560000D03*
X57320000Y72560000D03*
X31500000Y72560000D03*
X37000000Y72560000D03*
X41660000Y72560000D03*
X47160000Y72560000D03*
X21340000Y72560000D03*
X26840000Y72560000D03*
X39460000Y29380000D03*
X34460000Y29380000D03*
X61050000Y29380000D03*
X56050000Y29380000D03*
X17870000Y29380000D03*
X12870000Y29380000D03*
X16680000Y57320000D03*
X8425000Y57320000D03*
X39445640Y26934360D03*
X15410000Y26205000D03*
X44620000Y43985000D03*
X44620000Y37635000D03*
X24935000Y31920000D03*
X34460000Y32555000D03*
X46199989Y31920000D03*
X56050000Y33190000D03*
X50970000Y11600000D03*
X26840000Y43985000D03*
X27475000Y16680000D03*
X31920000Y37710022D03*
X47795000Y16680000D03*
X34460000Y43985000D03*
X9060000Y11600000D03*
X36365000Y37635000D03*
X5885000Y16680000D03*
X39615013Y37635000D03*
X47160000Y63035000D03*
X23665000Y52240000D03*
X5885000Y29380000D03*
X25010000Y14140000D03*
X46525000Y12870000D03*
X24935000Y10965000D03*
X69385000Y16680000D03*
X46525000Y10330000D03*
X17950000Y52240000D03*
X5809998Y31920000D03*
X30015000Y10965000D03*
X42080000Y63035000D03*
D16*
X66210000Y29380000D02*
X61050000Y29380000D01*
X43350000Y29380000D02*
X39460000Y29380000D01*
X21760000Y29380000D02*
X17870000Y29380000D01*
X20490000Y57320000D02*
X16680000Y57320000D01*
X39460000Y29380000D02*
X39460000Y26948720D01*
X39460000Y26948720D02*
X39445640Y26934360D01*
X15410000Y26920000D02*
X17870000Y29380000D01*
X15410000Y26205000D02*
X15410000Y26920000D01*
X66210000Y31920000D02*
X58590000Y31920000D01*
X43350000Y31920000D02*
X37000000Y31920000D01*
X15410000Y31920000D02*
X12870000Y29380000D01*
X21760000Y31920000D02*
X15410000Y31920000D01*
X66210000Y31920000D02*
X66210000Y42080000D01*
X63440000Y53510000D02*
X63035000Y53105000D01*
X66210000Y53510000D02*
X63440000Y53510000D01*
X63440000Y42080000D02*
X66210000Y42080000D01*
X63035000Y42485000D02*
X63440000Y42080000D01*
X63035000Y53105000D02*
X63035000Y42485000D01*
X21760000Y31920000D02*
X24935000Y31920000D01*
X35959999Y31055001D02*
X36135001Y31055001D01*
X36135001Y31055001D02*
X36365000Y31285000D01*
X34460000Y32555000D02*
X35959999Y31055001D01*
X36365000Y31285000D02*
X34460000Y29380000D01*
X37000000Y31920000D02*
X36365000Y31285000D01*
X43350000Y31920000D02*
X46199989Y31920000D01*
X57725001Y31690001D02*
X57955000Y31920000D01*
X57955000Y31920000D02*
X56050000Y29380000D01*
X57549999Y31690001D02*
X57725001Y31690001D01*
X56050000Y33190000D02*
X57549999Y31690001D01*
X58590000Y31920000D02*
X57955000Y31920000D01*
X26840000Y77640000D02*
X26840000Y72560000D01*
X31920000Y66210000D02*
X31920000Y67480000D01*
X31920000Y67480000D02*
X26840000Y72560000D01*
X37000000Y66210000D02*
X37000000Y66835806D01*
X43985000Y69385000D02*
X47160000Y72560000D01*
X38905000Y69385000D02*
X43985000Y69385000D01*
X37000000Y67480000D02*
X38905000Y69385000D01*
X37000000Y66210000D02*
X37000000Y67480000D01*
X47160000Y77640000D02*
X47160000Y72560000D01*
X34460000Y70020000D02*
X37000000Y72560000D01*
X34460000Y66210000D02*
X34460000Y70020000D01*
X37000000Y77640000D02*
X37000000Y72560000D01*
X57320000Y77640000D02*
X57320000Y72560000D01*
X57320000Y70438680D02*
X57320000Y72560000D01*
X24953561Y46543561D02*
X36383561Y46543561D01*
X36383561Y46543561D02*
X57320000Y67480000D01*
X57320000Y67480000D02*
X57320000Y70438680D01*
X24300000Y40810000D02*
X24300000Y45890000D01*
X24300000Y45890000D02*
X24953561Y46543561D01*
X50970000Y14140000D02*
X50970000Y11600000D01*
X26840000Y40810000D02*
X26840000Y43985000D01*
X30650000Y16680000D02*
X27475000Y16680000D01*
X31920000Y38040000D02*
X31920000Y40810000D01*
X31590022Y37710022D02*
X31920000Y38040000D01*
X31920000Y37710022D02*
X31590022Y37710022D01*
X50970000Y16680000D02*
X47795000Y16680000D01*
X34460000Y40810000D02*
X34460000Y43985000D01*
X9060000Y14140000D02*
X9060000Y11600000D01*
X37000000Y38270000D02*
X36365000Y37635000D01*
X37000000Y40810000D02*
X37000000Y38270000D01*
X9060000Y16680000D02*
X5885000Y16680000D01*
X39540000Y40810000D02*
X39540000Y37710013D01*
X39540000Y37710013D02*
X39615013Y37635000D01*
X50970000Y34190000D02*
X50970000Y31920000D01*
X42080000Y40810000D02*
X42080000Y34460000D01*
X42080000Y34460000D02*
X50700000Y34460000D01*
X50700000Y34460000D02*
X50970000Y34190000D01*
X30650000Y34460000D02*
X31130001Y34940001D01*
X31130001Y34940001D02*
X41599999Y34940001D01*
X41599999Y34940001D02*
X42080000Y34460000D01*
X30650000Y35095000D02*
X30650000Y34460000D01*
X30650000Y31920000D02*
X30650000Y35095000D01*
X9695000Y35095000D02*
X30650000Y35095000D01*
X9060000Y34190000D02*
X9695000Y35095000D01*
X9060000Y31920000D02*
X9060000Y34190000D01*
X9060000Y21760000D02*
X9060000Y19220000D01*
X47160000Y66210000D02*
X47160000Y63035000D01*
X23665000Y52240000D02*
X20490000Y52240000D01*
X48200000Y29380000D02*
X50970000Y29380000D01*
X47150806Y28330806D02*
X48200000Y29380000D01*
X47150806Y19855000D02*
X47150806Y28330806D01*
X43975806Y16680000D02*
X47150806Y19855000D01*
X43350000Y16680000D02*
X43975806Y16680000D01*
X27475000Y29380000D02*
X30650000Y29380000D01*
X26205000Y28110000D02*
X27475000Y29380000D01*
X23030000Y16680000D02*
X26205000Y19855000D01*
X26205000Y19855000D02*
X26205000Y28110000D01*
X21760000Y16680000D02*
X23030000Y16680000D01*
X9060000Y29380000D02*
X5885000Y29380000D01*
X22470000Y16680000D02*
X21760000Y16680000D01*
X25010000Y14140000D02*
X22470000Y16680000D01*
X46525000Y14130806D02*
X46525000Y12870000D01*
X43975806Y16680000D02*
X46525000Y14130806D01*
X66210000Y16680000D02*
X69385000Y16680000D01*
X46525000Y10330000D02*
X46525000Y12870000D01*
X24935000Y14065000D02*
X25010000Y14140000D01*
X24935000Y10965000D02*
X24935000Y14065000D01*
X20490000Y52240000D02*
X17950000Y52240000D01*
X5809998Y29455002D02*
X5885000Y29380000D01*
X5809998Y31920000D02*
X5809998Y29455002D01*
X18940196Y48972168D02*
X16650594Y48972168D01*
X20490000Y49700000D02*
X19668028Y49700000D01*
X16650594Y48972168D02*
X11600000Y54022762D01*
X11600000Y63440000D02*
X11600000Y66210000D01*
X11600000Y54022762D02*
X11600000Y63440000D01*
X19668028Y49700000D02*
X18940196Y48972168D01*
X14140000Y70020000D02*
X11600000Y72560000D01*
X14140000Y66210000D02*
X14140000Y70020000D01*
X21760000Y66210000D02*
X21760000Y67480000D01*
X15410000Y73830000D02*
X15410000Y81450000D01*
X21760000Y67480000D02*
X15410000Y73830000D01*
X24300000Y63440000D02*
X24300000Y66210000D01*
X24300000Y63044194D02*
X24300000Y63440000D01*
X21115806Y59860000D02*
X24300000Y63044194D01*
X20490000Y59860000D02*
X21115806Y59860000D01*
X26840000Y63440000D02*
X26840000Y66210000D01*
X23260000Y54780000D02*
X26840000Y58360000D01*
X26840000Y58360000D02*
X26840000Y63440000D01*
X20490000Y54780000D02*
X23260000Y54780000D01*
X23260000Y47160000D02*
X29380000Y53280000D01*
X29380000Y53280000D02*
X29380000Y63440000D01*
X20490000Y47160000D02*
X23260000Y47160000D01*
X29380000Y63440000D02*
X29380000Y66210000D01*
X30650000Y11600000D02*
X30015000Y10965000D01*
X30650000Y14140000D02*
X30650000Y11600000D01*
X42080000Y63035000D02*
X42080000Y66210000D01*
X30650000Y21760000D02*
X30650000Y19220000D01*
X50970000Y21760000D02*
X50970000Y19220000D01*
X21134194Y19220000D02*
X19220000Y17305806D01*
X19220000Y11830000D02*
X19220000Y9060000D01*
X19220000Y17305806D02*
X19220000Y11830000D01*
X21760000Y19220000D02*
X21134194Y19220000D01*
X20743814Y21760000D02*
X16680000Y17696186D01*
X16680000Y11830000D02*
X16680000Y9060000D01*
X16680000Y17696186D02*
X16680000Y11830000D01*
X21760000Y21760000D02*
X20743814Y21760000D01*
X14140000Y11830000D02*
X14140000Y9060000D01*
X14140000Y17950000D02*
X14140000Y11830000D01*
X19855000Y23665000D02*
X14140000Y17950000D01*
X21760000Y24300000D02*
X19855000Y23665000D01*
X21760000Y26840000D02*
X20490000Y26840000D01*
X11600000Y17950000D02*
X11600000Y9060000D01*
X20490000Y26840000D02*
X11600000Y17950000D01*
X31920000Y80180000D02*
X33190000Y81450000D01*
X31920000Y77640000D02*
X31920000Y80180000D01*
X66210000Y19220000D02*
X63670000Y19220000D01*
X63670000Y19220000D02*
X62400000Y17950000D01*
X62400000Y17950000D02*
X62400000Y9060000D01*
X59860000Y11830000D02*
X59860000Y9060000D01*
X59860000Y18180000D02*
X59860000Y11830000D01*
X63440000Y21760000D02*
X59860000Y18180000D01*
X66210000Y21760000D02*
X63440000Y21760000D01*
X57320000Y11830000D02*
X57320000Y9060000D01*
X57320000Y18180000D02*
X57320000Y11830000D01*
X63440000Y24300000D02*
X57320000Y18180000D01*
X66210000Y24300000D02*
X63440000Y24300000D01*
X54780000Y11830000D02*
X54780000Y9060000D01*
X54780000Y18180000D02*
X54780000Y11830000D01*
X63440000Y26840000D02*
X54780000Y18180000D01*
X66210000Y26840000D02*
X63440000Y26840000D01*
X52240000Y80180000D02*
X53510000Y81450000D01*
X52240000Y77640000D02*
X52240000Y80180000D01*
X42080000Y80180000D02*
X43350000Y81450000D01*
X42080000Y77640000D02*
X42080000Y80180000D01*
X21760000Y80180000D02*
X23030000Y81450000D01*
X21760000Y77640000D02*
X21760000Y80180000D01*
X40810000Y11830000D02*
X40810000Y9060000D01*
X40810000Y17305806D02*
X40810000Y11830000D01*
X42724194Y19220000D02*
X40810000Y17305806D01*
X43350000Y19220000D02*
X42724194Y19220000D01*
X38270000Y11830000D02*
X38270000Y9060000D01*
X38270000Y17305806D02*
X38270000Y11830000D01*
X42724194Y21760000D02*
X38270000Y17305806D01*
X43350000Y21760000D02*
X42724194Y21760000D01*
X35730000Y11830000D02*
X35730000Y9060000D01*
X35730000Y17305806D02*
X35730000Y11830000D01*
X42724194Y24300000D02*
X35730000Y17305806D01*
X43350000Y24300000D02*
X42724194Y24300000D01*
X33190000Y11830000D02*
X33190000Y9060000D01*
X33190000Y17305806D02*
X33190000Y11830000D01*
X43350000Y26840000D02*
X42724194Y26840000D01*
X42724194Y26840000D02*
X33190000Y17305806D01*
D17*
G36*
X73170000Y830000D02*
G01*
X830000Y830000D01*
X830000Y4165656D01*
X2095000Y4165656D01*
X2095000Y3794344D01*
X2167439Y3430166D01*
X2309534Y3087118D01*
X2515825Y2778382D01*
X2778382Y2515825D01*
X3087118Y2309534D01*
X3430166Y2167439D01*
X3794344Y2095000D01*
X4165656Y2095000D01*
X4529834Y2167439D01*
X4872882Y2309534D01*
X5181618Y2515825D01*
X5444175Y2778382D01*
X5650466Y3087118D01*
X5792561Y3430166D01*
X5865000Y3794344D01*
X5865000Y4165656D01*
X68135000Y4165656D01*
X68135000Y3794344D01*
X68207439Y3430166D01*
X68349534Y3087118D01*
X68555825Y2778382D01*
X68818382Y2515825D01*
X69127118Y2309534D01*
X69470166Y2167439D01*
X69834344Y2095000D01*
X70205656Y2095000D01*
X70569834Y2167439D01*
X70912882Y2309534D01*
X71221618Y2515825D01*
X71484175Y2778382D01*
X71690466Y3087118D01*
X71832561Y3430166D01*
X71905000Y3794344D01*
X71905000Y4165656D01*
X71832561Y4529834D01*
X71690466Y4872882D01*
X71484175Y5181618D01*
X71221618Y5444175D01*
X70912882Y5650466D01*
X70569834Y5792561D01*
X70205656Y5865000D01*
X69834344Y5865000D01*
X69470166Y5792561D01*
X69127118Y5650466D01*
X68818382Y5444175D01*
X68555825Y5181618D01*
X68349534Y4872882D01*
X68207439Y4529834D01*
X68135000Y4165656D01*
X5865000Y4165656D01*
X5792561Y4529834D01*
X5650466Y4872882D01*
X5444175Y5181618D01*
X5181618Y5444175D01*
X4872882Y5650466D01*
X4529834Y5792561D01*
X4165656Y5865000D01*
X3794344Y5865000D01*
X3430166Y5792561D01*
X3087118Y5650466D01*
X2778382Y5444175D01*
X2515825Y5181618D01*
X2309534Y4872882D01*
X2167439Y4529834D01*
X2095000Y4165656D01*
X830000Y4165656D01*
X830000Y32130279D01*
X3674998Y32130279D01*
X3674998Y31709721D01*
X3757045Y31297244D01*
X3917986Y30908698D01*
X4128343Y30593876D01*
X3992988Y30391302D01*
X3832047Y30002756D01*
X3750000Y29590279D01*
X3750000Y29169721D01*
X3832047Y28757244D01*
X3992988Y28368698D01*
X4226637Y28019017D01*
X4524017Y27721637D01*
X4873698Y27487988D01*
X5262244Y27327047D01*
X5674721Y27245000D01*
X6095279Y27245000D01*
X6507756Y27327047D01*
X6896302Y27487988D01*
X7139200Y27650287D01*
X7042148Y27468715D01*
X6948657Y27160516D01*
X6917089Y26840000D01*
X6948657Y26519484D01*
X7042148Y26211285D01*
X7193969Y25927248D01*
X7398286Y25678286D01*
X7530233Y25570000D01*
X7398286Y25461714D01*
X7193969Y25212752D01*
X7042148Y24928715D01*
X6948657Y24620516D01*
X6917089Y24300000D01*
X6948657Y23979484D01*
X7042148Y23671285D01*
X7193969Y23387248D01*
X7398286Y23138286D01*
X7530233Y23030000D01*
X7398286Y22921714D01*
X7193969Y22672752D01*
X7042148Y22388715D01*
X6948657Y22080516D01*
X6917089Y21760000D01*
X6948657Y21439484D01*
X7042148Y21131285D01*
X7193969Y20847248D01*
X7398286Y20598286D01*
X7530233Y20490000D01*
X7398286Y20381714D01*
X7193969Y20132752D01*
X7042148Y19848715D01*
X6948657Y19540516D01*
X6917089Y19220000D01*
X6948657Y18899484D01*
X7042148Y18591285D01*
X7139200Y18409713D01*
X6896302Y18572012D01*
X6507756Y18732953D01*
X6095279Y18815000D01*
X5674721Y18815000D01*
X5262244Y18732953D01*
X4873698Y18572012D01*
X4524017Y18338363D01*
X4226637Y18040983D01*
X3992988Y17691302D01*
X3832047Y17302756D01*
X3750000Y16890279D01*
X3750000Y16469721D01*
X3832047Y16057244D01*
X3992988Y15668698D01*
X4226637Y15319017D01*
X4524017Y15021637D01*
X4873698Y14787988D01*
X5262244Y14627047D01*
X5674721Y14545000D01*
X6095279Y14545000D01*
X6507756Y14627047D01*
X6896302Y14787988D01*
X7139200Y14950287D01*
X7042148Y14768715D01*
X6948657Y14460516D01*
X6917089Y14140000D01*
X6948657Y13819484D01*
X7042148Y13511285D01*
X7193969Y13227248D01*
X7398286Y12978286D01*
X7409630Y12968976D01*
X7401637Y12960983D01*
X7167988Y12611302D01*
X7007047Y12222756D01*
X6925000Y11810279D01*
X6925000Y11389721D01*
X7007047Y10977244D01*
X7167988Y10588698D01*
X7401637Y10239017D01*
X7699017Y9941637D01*
X8048698Y9707988D01*
X8437244Y9547047D01*
X8849721Y9465000D01*
X9270279Y9465000D01*
X9682756Y9547047D01*
X9961928Y9662684D01*
X9961928Y7560000D01*
X9974188Y7435518D01*
X10010498Y7315820D01*
X10069463Y7205506D01*
X10148815Y7108815D01*
X10245506Y7029463D01*
X10355820Y6970498D01*
X10475518Y6934188D01*
X10600000Y6921928D01*
X12600000Y6921928D01*
X12724482Y6934188D01*
X12844180Y6970498D01*
X12954494Y7029463D01*
X13051185Y7108815D01*
X13130537Y7205506D01*
X13155739Y7252655D01*
X13227249Y7193969D01*
X13511286Y7042148D01*
X13819485Y6948657D01*
X14140000Y6917089D01*
X14460516Y6948657D01*
X14768715Y7042148D01*
X15052752Y7193969D01*
X15301714Y7398286D01*
X15410001Y7530234D01*
X15518287Y7398286D01*
X15767249Y7193969D01*
X16051286Y7042148D01*
X16359485Y6948657D01*
X16680000Y6917089D01*
X17000516Y6948657D01*
X17308715Y7042148D01*
X17592752Y7193969D01*
X17841714Y7398286D01*
X17950001Y7530234D01*
X18058287Y7398286D01*
X18307249Y7193969D01*
X18591286Y7042148D01*
X18899485Y6948657D01*
X19220000Y6917089D01*
X19540516Y6948657D01*
X19848715Y7042148D01*
X20132752Y7193969D01*
X20381714Y7398286D01*
X20586031Y7647248D01*
X20737852Y7931285D01*
X20831343Y8239484D01*
X20855000Y8479678D01*
X20855000Y9640322D01*
X20831343Y9880516D01*
X20737852Y10188715D01*
X20586031Y10472752D01*
X20490000Y10589767D01*
X20490000Y15237666D01*
X20631285Y15162148D01*
X20939484Y15068657D01*
X21179678Y15045000D01*
X22308950Y15045000D01*
X22896348Y14457602D01*
X22875000Y14350279D01*
X22875000Y13929721D01*
X22957047Y13517244D01*
X23117988Y13128698D01*
X23351637Y12779017D01*
X23540654Y12590000D01*
X23276637Y12325983D01*
X23042988Y11976302D01*
X22882047Y11587756D01*
X22800000Y11175279D01*
X22800000Y10754721D01*
X22882047Y10342244D01*
X23042988Y9953698D01*
X23276637Y9604017D01*
X23574017Y9306637D01*
X23923698Y9072988D01*
X24312244Y8912047D01*
X24724721Y8830000D01*
X25145279Y8830000D01*
X25557756Y8912047D01*
X25946302Y9072988D01*
X26295983Y9306637D01*
X26593363Y9604017D01*
X26827012Y9953698D01*
X26987953Y10342244D01*
X27070000Y10754721D01*
X27070000Y11175279D01*
X26987953Y11587756D01*
X26827012Y11976302D01*
X26593363Y12325983D01*
X26404346Y12515000D01*
X26668363Y12779017D01*
X26902012Y13128698D01*
X27062953Y13517244D01*
X27145000Y13929721D01*
X27145000Y14350279D01*
X27099740Y14577817D01*
X27264721Y14545000D01*
X27685279Y14545000D01*
X28097756Y14627047D01*
X28486302Y14787988D01*
X28729200Y14950287D01*
X28632148Y14768715D01*
X28538657Y14460516D01*
X28507089Y14140000D01*
X28538657Y13819484D01*
X28632148Y13511285D01*
X28783969Y13227248D01*
X28988286Y12978286D01*
X29091662Y12893448D01*
X29003698Y12857012D01*
X28654017Y12623363D01*
X28356637Y12325983D01*
X28122988Y11976302D01*
X27962047Y11587756D01*
X27880000Y11175279D01*
X27880000Y10754721D01*
X27962047Y10342244D01*
X28122988Y9953698D01*
X28356637Y9604017D01*
X28654017Y9306637D01*
X29003698Y9072988D01*
X29392244Y8912047D01*
X29804721Y8830000D01*
X30225279Y8830000D01*
X30637756Y8912047D01*
X31026302Y9072988D01*
X31375983Y9306637D01*
X31551928Y9482582D01*
X31551928Y7560000D01*
X31564188Y7435518D01*
X31600498Y7315820D01*
X31659463Y7205506D01*
X31738815Y7108815D01*
X31835506Y7029463D01*
X31945820Y6970498D01*
X32065518Y6934188D01*
X32190000Y6921928D01*
X34190000Y6921928D01*
X34314482Y6934188D01*
X34434180Y6970498D01*
X34544494Y7029463D01*
X34641185Y7108815D01*
X34720537Y7205506D01*
X34745739Y7252655D01*
X34817249Y7193969D01*
X35101286Y7042148D01*
X35409485Y6948657D01*
X35730000Y6917089D01*
X36050516Y6948657D01*
X36358715Y7042148D01*
X36642752Y7193969D01*
X36891714Y7398286D01*
X37000001Y7530234D01*
X37108287Y7398286D01*
X37357249Y7193969D01*
X37641286Y7042148D01*
X37949485Y6948657D01*
X38270000Y6917089D01*
X38590516Y6948657D01*
X38898715Y7042148D01*
X39182752Y7193969D01*
X39431714Y7398286D01*
X39540001Y7530234D01*
X39648287Y7398286D01*
X39897249Y7193969D01*
X40181286Y7042148D01*
X40489485Y6948657D01*
X40810000Y6917089D01*
X41130516Y6948657D01*
X41438715Y7042148D01*
X41722752Y7193969D01*
X41971714Y7398286D01*
X42176031Y7647248D01*
X42327852Y7931285D01*
X42421343Y8239484D01*
X42445000Y8479678D01*
X42445000Y9640322D01*
X42421343Y9880516D01*
X42327852Y10188715D01*
X42176031Y10472752D01*
X42080000Y10589767D01*
X42080000Y15237666D01*
X42221285Y15162148D01*
X42529484Y15068657D01*
X42769678Y15045000D01*
X43814755Y15045000D01*
X44771362Y14088393D01*
X44632988Y13881302D01*
X44472047Y13492756D01*
X44390000Y13080279D01*
X44390000Y12659721D01*
X44472047Y12247244D01*
X44632988Y11858698D01*
X44805844Y11600000D01*
X44632988Y11341302D01*
X44472047Y10952756D01*
X44390000Y10540279D01*
X44390000Y10119721D01*
X44472047Y9707244D01*
X44632988Y9318698D01*
X44866637Y8969017D01*
X45164017Y8671637D01*
X45513698Y8437988D01*
X45902244Y8277047D01*
X46314721Y8195000D01*
X46735279Y8195000D01*
X47147756Y8277047D01*
X47536302Y8437988D01*
X47885983Y8671637D01*
X48183363Y8969017D01*
X48417012Y9318698D01*
X48577953Y9707244D01*
X48660000Y10119721D01*
X48660000Y10540279D01*
X48577953Y10952756D01*
X48417012Y11341302D01*
X48244156Y11600000D01*
X48417012Y11858698D01*
X48577953Y12247244D01*
X48660000Y12659721D01*
X48660000Y13080279D01*
X48577953Y13492756D01*
X48417012Y13881302D01*
X48183363Y14230983D01*
X47885983Y14528363D01*
X47861084Y14545000D01*
X48005279Y14545000D01*
X48417756Y14627047D01*
X48806302Y14787988D01*
X49049200Y14950287D01*
X48952148Y14768715D01*
X48858657Y14460516D01*
X48827089Y14140000D01*
X48858657Y13819484D01*
X48952148Y13511285D01*
X49103969Y13227248D01*
X49308286Y12978286D01*
X49319630Y12968976D01*
X49311637Y12960983D01*
X49077988Y12611302D01*
X48917047Y12222756D01*
X48835000Y11810279D01*
X48835000Y11389721D01*
X48917047Y10977244D01*
X49077988Y10588698D01*
X49311637Y10239017D01*
X49609017Y9941637D01*
X49958698Y9707988D01*
X50347244Y9547047D01*
X50759721Y9465000D01*
X51180279Y9465000D01*
X51592756Y9547047D01*
X51981302Y9707988D01*
X52330983Y9941637D01*
X52628363Y10239017D01*
X52842836Y10560000D01*
X53141928Y10560000D01*
X53141928Y7560000D01*
X53154188Y7435518D01*
X53190498Y7315820D01*
X53249463Y7205506D01*
X53328815Y7108815D01*
X53425506Y7029463D01*
X53535820Y6970498D01*
X53655518Y6934188D01*
X53780000Y6921928D01*
X55780000Y6921928D01*
X55904482Y6934188D01*
X56024180Y6970498D01*
X56134494Y7029463D01*
X56231185Y7108815D01*
X56310537Y7205506D01*
X56335739Y7252655D01*
X56407249Y7193969D01*
X56691286Y7042148D01*
X56999485Y6948657D01*
X57320000Y6917089D01*
X57640516Y6948657D01*
X57948715Y7042148D01*
X58232752Y7193969D01*
X58481714Y7398286D01*
X58590001Y7530234D01*
X58698287Y7398286D01*
X58947249Y7193969D01*
X59231286Y7042148D01*
X59539485Y6948657D01*
X59860000Y6917089D01*
X60180516Y6948657D01*
X60488715Y7042148D01*
X60772752Y7193969D01*
X61021714Y7398286D01*
X61130001Y7530234D01*
X61238287Y7398286D01*
X61487249Y7193969D01*
X61771286Y7042148D01*
X62079485Y6948657D01*
X62400000Y6917089D01*
X62720516Y6948657D01*
X63028715Y7042148D01*
X63312752Y7193969D01*
X63561714Y7398286D01*
X63766031Y7647248D01*
X63917852Y7931285D01*
X64011343Y8239484D01*
X64035000Y8479678D01*
X64035000Y9640322D01*
X64011343Y9880516D01*
X63917852Y10188715D01*
X63766031Y10472752D01*
X63670000Y10589767D01*
X63670000Y17423950D01*
X64196051Y17950000D01*
X64680233Y17950000D01*
X64548286Y17841714D01*
X64343969Y17592752D01*
X64192148Y17308715D01*
X64098657Y17000516D01*
X64067089Y16680000D01*
X64098657Y16359484D01*
X64192148Y16051285D01*
X64343969Y15767248D01*
X64548286Y15518286D01*
X64797248Y15313969D01*
X65081285Y15162148D01*
X65389484Y15068657D01*
X65629678Y15045000D01*
X66790322Y15045000D01*
X67030516Y15068657D01*
X67338715Y15162148D01*
X67622752Y15313969D01*
X67692024Y15370819D01*
X67726637Y15319017D01*
X68024017Y15021637D01*
X68373698Y14787988D01*
X68762244Y14627047D01*
X69174721Y14545000D01*
X69595279Y14545000D01*
X70007756Y14627047D01*
X70396302Y14787988D01*
X70745983Y15021637D01*
X71043363Y15319017D01*
X71277012Y15668698D01*
X71437953Y16057244D01*
X71520000Y16469721D01*
X71520000Y16890279D01*
X71437953Y17302756D01*
X71277012Y17691302D01*
X71043363Y18040983D01*
X70745983Y18338363D01*
X70396302Y18572012D01*
X70007756Y18732953D01*
X69595279Y18815000D01*
X69174721Y18815000D01*
X68762244Y18732953D01*
X68373698Y18572012D01*
X68130800Y18409713D01*
X68227852Y18591285D01*
X68321343Y18899484D01*
X68352911Y19220000D01*
X68321343Y19540516D01*
X68227852Y19848715D01*
X68076031Y20132752D01*
X67871714Y20381714D01*
X67739767Y20490000D01*
X67871714Y20598286D01*
X68076031Y20847248D01*
X68227852Y21131285D01*
X68321343Y21439484D01*
X68352911Y21760000D01*
X68321343Y22080516D01*
X68227852Y22388715D01*
X68076031Y22672752D01*
X67871714Y22921714D01*
X67739767Y23030000D01*
X67871714Y23138286D01*
X68076031Y23387248D01*
X68227852Y23671285D01*
X68321343Y23979484D01*
X68352911Y24300000D01*
X68321343Y24620516D01*
X68227852Y24928715D01*
X68076031Y25212752D01*
X67871714Y25461714D01*
X67739767Y25570000D01*
X67871714Y25678286D01*
X68076031Y25927248D01*
X68227852Y26211285D01*
X68321343Y26519484D01*
X68352911Y26840000D01*
X68321343Y27160516D01*
X68227852Y27468715D01*
X68076031Y27752752D01*
X67871714Y28001714D01*
X67622752Y28206031D01*
X67338715Y28357852D01*
X67030516Y28451343D01*
X66790322Y28475000D01*
X65629678Y28475000D01*
X65389484Y28451343D01*
X65081285Y28357852D01*
X64797248Y28206031D01*
X64680233Y28110000D01*
X63502372Y28110000D01*
X63439999Y28116143D01*
X63377626Y28110000D01*
X63377620Y28110000D01*
X63216755Y28094156D01*
X63191036Y28091623D01*
X63118416Y28069594D01*
X62951641Y28019003D01*
X62731012Y27901075D01*
X62537630Y27742370D01*
X62497863Y27693914D01*
X53926091Y19122141D01*
X53877630Y19082370D01*
X53718925Y18888987D01*
X53600997Y18668358D01*
X53553267Y18511012D01*
X53531228Y18438359D01*
X53528377Y18428962D01*
X53510000Y18242379D01*
X53510000Y18242373D01*
X53503857Y18180000D01*
X53510000Y18117627D01*
X53510001Y11892389D01*
X53510000Y11892379D01*
X53510000Y11135701D01*
X53425506Y11090537D01*
X53328815Y11011185D01*
X53249463Y10914494D01*
X53190498Y10804180D01*
X53154188Y10684482D01*
X53141928Y10560000D01*
X52842836Y10560000D01*
X52862012Y10588698D01*
X53022953Y10977244D01*
X53105000Y11389721D01*
X53105000Y11810279D01*
X53022953Y12222756D01*
X52862012Y12611302D01*
X52628363Y12960983D01*
X52620370Y12968976D01*
X52631714Y12978286D01*
X52836031Y13227248D01*
X52987852Y13511285D01*
X53081343Y13819484D01*
X53112911Y14140000D01*
X53081343Y14460516D01*
X52987852Y14768715D01*
X52836031Y15052752D01*
X52631714Y15301714D01*
X52499767Y15410000D01*
X52631714Y15518286D01*
X52836031Y15767248D01*
X52987852Y16051285D01*
X53081343Y16359484D01*
X53112911Y16680000D01*
X53081343Y17000516D01*
X52987852Y17308715D01*
X52836031Y17592752D01*
X52631714Y17841714D01*
X52499767Y17950000D01*
X52631714Y18058286D01*
X52836031Y18307248D01*
X52987852Y18591285D01*
X53081343Y18899484D01*
X53112911Y19220000D01*
X53081343Y19540516D01*
X52987852Y19848715D01*
X52836031Y20132752D01*
X52631714Y20381714D01*
X52499767Y20490000D01*
X52631714Y20598286D01*
X52836031Y20847248D01*
X52987852Y21131285D01*
X53081343Y21439484D01*
X53112911Y21760000D01*
X53081343Y22080516D01*
X52987852Y22388715D01*
X52836031Y22672752D01*
X52631714Y22921714D01*
X52499767Y23030000D01*
X52631714Y23138286D01*
X52836031Y23387248D01*
X52987852Y23671285D01*
X53081343Y23979484D01*
X53112911Y24300000D01*
X53081343Y24620516D01*
X52987852Y24928715D01*
X52836031Y25212752D01*
X52631714Y25461714D01*
X52499767Y25570000D01*
X52631714Y25678286D01*
X52836031Y25927248D01*
X52987852Y26211285D01*
X53081343Y26519484D01*
X53112911Y26840000D01*
X53081343Y27160516D01*
X52987852Y27468715D01*
X52836031Y27752752D01*
X52631714Y28001714D01*
X52499767Y28110000D01*
X52631714Y28218286D01*
X52836031Y28467248D01*
X52987852Y28751285D01*
X53081343Y29059484D01*
X53112911Y29380000D01*
X53081343Y29700516D01*
X52987852Y30008715D01*
X52836031Y30292752D01*
X52777345Y30364261D01*
X52824494Y30389463D01*
X52921185Y30468815D01*
X53000537Y30565506D01*
X53059502Y30675820D01*
X53095812Y30795518D01*
X53108072Y30920000D01*
X53108072Y32920000D01*
X53095812Y33044482D01*
X53059502Y33164180D01*
X53000537Y33274494D01*
X52921185Y33371185D01*
X52885734Y33400279D01*
X53915000Y33400279D01*
X53915000Y32979721D01*
X53997047Y32567244D01*
X54157988Y32178698D01*
X54391637Y31829017D01*
X54689017Y31531637D01*
X55038698Y31297988D01*
X55070054Y31285000D01*
X55038698Y31272012D01*
X54689017Y31038363D01*
X54391637Y30740983D01*
X54157988Y30391302D01*
X53997047Y30002756D01*
X53915000Y29590279D01*
X53915000Y29169721D01*
X53997047Y28757244D01*
X54157988Y28368698D01*
X54391637Y28019017D01*
X54689017Y27721637D01*
X55038698Y27487988D01*
X55427244Y27327047D01*
X55839721Y27245000D01*
X56260279Y27245000D01*
X56672756Y27327047D01*
X57061302Y27487988D01*
X57410983Y27721637D01*
X57708363Y28019017D01*
X57942012Y28368698D01*
X58102953Y28757244D01*
X58185000Y29169721D01*
X58185000Y29590279D01*
X58103291Y30001056D01*
X58590000Y30650000D01*
X64134299Y30650000D01*
X64179463Y30565506D01*
X64258815Y30468815D01*
X64355506Y30389463D01*
X64465820Y30330498D01*
X64585518Y30294188D01*
X64710000Y30281928D01*
X67710000Y30281928D01*
X67834482Y30294188D01*
X67954180Y30330498D01*
X68064494Y30389463D01*
X68161185Y30468815D01*
X68240537Y30565506D01*
X68299502Y30675820D01*
X68335812Y30795518D01*
X68348072Y30920000D01*
X68348072Y32920000D01*
X68335812Y33044482D01*
X68299502Y33164180D01*
X68240537Y33274494D01*
X68161185Y33371185D01*
X68064494Y33450537D01*
X67954180Y33509502D01*
X67834482Y33545812D01*
X67710000Y33558072D01*
X67480000Y33558072D01*
X67480000Y39941928D01*
X67710000Y39941928D01*
X67834482Y39954188D01*
X67954180Y39990498D01*
X68064494Y40049463D01*
X68161185Y40128815D01*
X68240537Y40225506D01*
X68299502Y40335820D01*
X68335812Y40455518D01*
X68348072Y40580000D01*
X68348072Y43580000D01*
X68335812Y43704482D01*
X68299502Y43824180D01*
X68240537Y43934494D01*
X68161185Y44031185D01*
X68064494Y44110537D01*
X67954180Y44169502D01*
X67834482Y44205812D01*
X67710000Y44218072D01*
X64710000Y44218072D01*
X64585518Y44205812D01*
X64465820Y44169502D01*
X64355506Y44110537D01*
X64305000Y44069088D01*
X64305000Y52020912D01*
X64355506Y51979463D01*
X64465820Y51920498D01*
X64585518Y51884188D01*
X64710000Y51871928D01*
X67710000Y51871928D01*
X67834482Y51884188D01*
X67954180Y51920498D01*
X68064494Y51979463D01*
X68161185Y52058815D01*
X68240537Y52155506D01*
X68299502Y52265820D01*
X68335812Y52385518D01*
X68348072Y52510000D01*
X68348072Y54510000D01*
X68335812Y54634482D01*
X68299502Y54754180D01*
X68240537Y54864494D01*
X68161185Y54961185D01*
X68064494Y55040537D01*
X67954180Y55099502D01*
X67834482Y55135812D01*
X67710000Y55148072D01*
X64710000Y55148072D01*
X64585518Y55135812D01*
X64465820Y55099502D01*
X64355506Y55040537D01*
X64258815Y54961185D01*
X64179463Y54864494D01*
X64134299Y54780000D01*
X63502372Y54780000D01*
X63439999Y54786143D01*
X63377626Y54780000D01*
X63377620Y54780000D01*
X63216755Y54764156D01*
X63191036Y54761623D01*
X63135318Y54744721D01*
X62951641Y54689003D01*
X62731012Y54571075D01*
X62537630Y54412370D01*
X62497859Y54363909D01*
X62181091Y54047141D01*
X62132630Y54007370D01*
X61973925Y53813987D01*
X61855997Y53593358D01*
X61783377Y53353962D01*
X61765000Y53167379D01*
X61765000Y53167373D01*
X61758857Y53105000D01*
X61765000Y53042627D01*
X61765001Y42547383D01*
X61758857Y42485000D01*
X61783377Y42236037D01*
X61830711Y42080001D01*
X61855998Y41996641D01*
X61973926Y41776012D01*
X62132631Y41582630D01*
X62181087Y41542863D01*
X62497859Y41226091D01*
X62537630Y41177630D01*
X62731012Y41018925D01*
X62951641Y40900997D01*
X63135318Y40845279D01*
X63191036Y40828377D01*
X63216755Y40825844D01*
X63377620Y40810000D01*
X63377626Y40810000D01*
X63439999Y40803857D01*
X63502372Y40810000D01*
X64071928Y40810000D01*
X64071928Y40580000D01*
X64084188Y40455518D01*
X64120498Y40335820D01*
X64179463Y40225506D01*
X64258815Y40128815D01*
X64355506Y40049463D01*
X64465820Y39990498D01*
X64585518Y39954188D01*
X64710000Y39941928D01*
X64940001Y39941928D01*
X64940000Y33558072D01*
X64710000Y33558072D01*
X64585518Y33545812D01*
X64465820Y33509502D01*
X64355506Y33450537D01*
X64258815Y33371185D01*
X64179463Y33274494D01*
X64134299Y33190000D01*
X58185000Y33190000D01*
X58185000Y33400279D01*
X58102953Y33812756D01*
X57942012Y34201302D01*
X57708363Y34550983D01*
X57410983Y34848363D01*
X57061302Y35082012D01*
X56672756Y35242953D01*
X56260279Y35325000D01*
X55839721Y35325000D01*
X55427244Y35242953D01*
X55038698Y35082012D01*
X54689017Y34848363D01*
X54391637Y34550983D01*
X54157988Y34201302D01*
X53997047Y33812756D01*
X53915000Y33400279D01*
X52885734Y33400279D01*
X52824494Y33450537D01*
X52714180Y33509502D01*
X52594482Y33545812D01*
X52470000Y33558072D01*
X52240000Y33558072D01*
X52240000Y34127620D01*
X52246144Y34190000D01*
X52221623Y34438963D01*
X52149003Y34678358D01*
X52149003Y34678359D01*
X52031075Y34898988D01*
X51872370Y35092370D01*
X51823914Y35132137D01*
X51642140Y35313910D01*
X51602370Y35362370D01*
X51408988Y35521075D01*
X51188359Y35639003D01*
X50948963Y35711623D01*
X50762380Y35730000D01*
X50762373Y35730000D01*
X50700000Y35736143D01*
X50637627Y35730000D01*
X43350000Y35730000D01*
X43350000Y39280233D01*
X43446031Y39397248D01*
X43597852Y39681285D01*
X43691343Y39989484D01*
X43715000Y40229678D01*
X43715000Y41390322D01*
X43691343Y41630516D01*
X43597852Y41938715D01*
X43446031Y42222752D01*
X43374429Y42310000D01*
X45521928Y42310000D01*
X45521928Y39310000D01*
X45534188Y39185518D01*
X45570498Y39065820D01*
X45629463Y38955506D01*
X45708815Y38858815D01*
X45805506Y38779463D01*
X45915820Y38720498D01*
X46035518Y38684188D01*
X46160000Y38671928D01*
X48160000Y38671928D01*
X48284482Y38684188D01*
X48404180Y38720498D01*
X48514494Y38779463D01*
X48611185Y38858815D01*
X48690537Y38955506D01*
X48749502Y39065820D01*
X48785812Y39185518D01*
X48798072Y39310000D01*
X48798072Y42310000D01*
X48785812Y42434482D01*
X48749502Y42554180D01*
X48690537Y42664494D01*
X48611185Y42761185D01*
X48514494Y42840537D01*
X48404180Y42899502D01*
X48284482Y42935812D01*
X48160000Y42948072D01*
X46160000Y42948072D01*
X46035518Y42935812D01*
X45915820Y42899502D01*
X45805506Y42840537D01*
X45708815Y42761185D01*
X45629463Y42664494D01*
X45570498Y42554180D01*
X45534188Y42434482D01*
X45521928Y42310000D01*
X43374429Y42310000D01*
X43241714Y42471714D01*
X42992752Y42676031D01*
X42708715Y42827852D01*
X42400516Y42921343D01*
X42080000Y42952911D01*
X41759485Y42921343D01*
X41451286Y42827852D01*
X41167249Y42676031D01*
X40918287Y42471714D01*
X40810001Y42339766D01*
X40701714Y42471714D01*
X40452752Y42676031D01*
X40168715Y42827852D01*
X39860516Y42921343D01*
X39540000Y42952911D01*
X39219485Y42921343D01*
X38911286Y42827852D01*
X38627249Y42676031D01*
X38378287Y42471714D01*
X38270001Y42339766D01*
X38161714Y42471714D01*
X37912752Y42676031D01*
X37628715Y42827852D01*
X37320516Y42921343D01*
X37000000Y42952911D01*
X36679485Y42921343D01*
X36371286Y42827852D01*
X36189712Y42730799D01*
X36352012Y42973698D01*
X36512953Y43362244D01*
X36595000Y43774721D01*
X36595000Y44195279D01*
X36512953Y44607756D01*
X36352012Y44996302D01*
X36166754Y45273561D01*
X36321188Y45273561D01*
X36383561Y45267418D01*
X36445934Y45273561D01*
X36445941Y45273561D01*
X36632524Y45291938D01*
X36871920Y45364558D01*
X37092549Y45482486D01*
X37285931Y45641191D01*
X37325702Y45689652D01*
X58173917Y66537866D01*
X58222370Y66577630D01*
X58381075Y66771012D01*
X58499003Y66991641D01*
X58571623Y67231037D01*
X58590000Y67417620D01*
X58590000Y67417627D01*
X58596143Y67480000D01*
X58590000Y67542373D01*
X58590000Y70840844D01*
X58680983Y70901637D01*
X58978363Y71199017D01*
X59212012Y71548698D01*
X59372953Y71937244D01*
X59455000Y72349721D01*
X59455000Y72770279D01*
X59372953Y73182756D01*
X59212012Y73571302D01*
X58978363Y73920983D01*
X58680983Y74218363D01*
X58590000Y74279156D01*
X58590000Y76110233D01*
X58686031Y76227248D01*
X58837852Y76511285D01*
X58931343Y76819484D01*
X58955000Y77059678D01*
X58955000Y78220322D01*
X58931343Y78460516D01*
X58837852Y78768715D01*
X58686031Y79052752D01*
X58481714Y79301714D01*
X58232752Y79506031D01*
X57948715Y79657852D01*
X57640516Y79751343D01*
X57320000Y79782911D01*
X56999485Y79751343D01*
X56691286Y79657852D01*
X56407249Y79506031D01*
X56158287Y79301714D01*
X55953970Y79052752D01*
X55802148Y78768715D01*
X55708657Y78460516D01*
X55685000Y78220322D01*
X55685000Y77059679D01*
X55708657Y76819485D01*
X55802148Y76511286D01*
X55953969Y76227249D01*
X56050000Y76110234D01*
X56050001Y74279156D01*
X55959017Y74218363D01*
X55661637Y73920983D01*
X55427988Y73571302D01*
X55267047Y73182756D01*
X55185000Y72770279D01*
X55185000Y72349721D01*
X55267047Y71937244D01*
X55427988Y71548698D01*
X55661637Y71199017D01*
X55959017Y70901637D01*
X56050000Y70840844D01*
X56050000Y70376301D01*
X56050001Y70376291D01*
X56050000Y68006051D01*
X35857511Y47813561D01*
X25709611Y47813561D01*
X30233915Y52337864D01*
X30282370Y52377630D01*
X30441075Y52571012D01*
X30559003Y52791641D01*
X30631623Y53031037D01*
X30650000Y53217620D01*
X30650000Y53217626D01*
X30656143Y53279999D01*
X30650000Y53342372D01*
X30650000Y64680234D01*
X30758286Y64548286D01*
X31007248Y64343969D01*
X31291285Y64192148D01*
X31599484Y64098657D01*
X31920000Y64067089D01*
X32240515Y64098657D01*
X32548714Y64192148D01*
X32832751Y64343969D01*
X33081714Y64548286D01*
X33190000Y64680234D01*
X33298286Y64548286D01*
X33547248Y64343969D01*
X33831285Y64192148D01*
X34139484Y64098657D01*
X34460000Y64067089D01*
X34780515Y64098657D01*
X35088714Y64192148D01*
X35372751Y64343969D01*
X35621714Y64548286D01*
X35730000Y64680234D01*
X35838286Y64548286D01*
X36087248Y64343969D01*
X36371285Y64192148D01*
X36679484Y64098657D01*
X37000000Y64067089D01*
X37320515Y64098657D01*
X37628714Y64192148D01*
X37912751Y64343969D01*
X38161714Y64548286D01*
X38270000Y64680234D01*
X38378286Y64548286D01*
X38627248Y64343969D01*
X38911285Y64192148D01*
X39219484Y64098657D01*
X39540000Y64067089D01*
X39860515Y64098657D01*
X40168714Y64192148D01*
X40350288Y64289201D01*
X40187988Y64046302D01*
X40027047Y63657756D01*
X39945000Y63245279D01*
X39945000Y62824721D01*
X40027047Y62412244D01*
X40187988Y62023698D01*
X40421637Y61674017D01*
X40719017Y61376637D01*
X41068698Y61142988D01*
X41457244Y60982047D01*
X41869721Y60900000D01*
X42290279Y60900000D01*
X42702756Y60982047D01*
X43091302Y61142988D01*
X43440983Y61376637D01*
X43738363Y61674017D01*
X43972012Y62023698D01*
X44132953Y62412244D01*
X44215000Y62824721D01*
X44215000Y63245279D01*
X45025000Y63245279D01*
X45025000Y62824721D01*
X45107047Y62412244D01*
X45267988Y62023698D01*
X45501637Y61674017D01*
X45799017Y61376637D01*
X46148698Y61142988D01*
X46537244Y60982047D01*
X46949721Y60900000D01*
X47370279Y60900000D01*
X47782756Y60982047D01*
X48171302Y61142988D01*
X48520983Y61376637D01*
X48818363Y61674017D01*
X49052012Y62023698D01*
X49212953Y62412244D01*
X49295000Y62824721D01*
X49295000Y63245279D01*
X49212953Y63657756D01*
X49052012Y64046302D01*
X48818363Y64395983D01*
X48749162Y64465184D01*
X48749502Y64465820D01*
X48785812Y64585518D01*
X48798072Y64710000D01*
X48798072Y67710000D01*
X48785812Y67834482D01*
X48749502Y67954180D01*
X48690537Y68064494D01*
X48611185Y68161185D01*
X48514494Y68240537D01*
X48404180Y68299502D01*
X48284482Y68335812D01*
X48160000Y68348072D01*
X46160000Y68348072D01*
X46035518Y68335812D01*
X45915820Y68299502D01*
X45805506Y68240537D01*
X45708815Y68161185D01*
X45629463Y68064494D01*
X45570498Y67954180D01*
X45534188Y67834482D01*
X45521928Y67710000D01*
X45521928Y64710000D01*
X45534188Y64585518D01*
X45570498Y64465820D01*
X45570838Y64465184D01*
X45501637Y64395983D01*
X45267988Y64046302D01*
X45107047Y63657756D01*
X45025000Y63245279D01*
X44215000Y63245279D01*
X44132953Y63657756D01*
X43972012Y64046302D01*
X43738363Y64395983D01*
X43440983Y64693363D01*
X43389181Y64727976D01*
X43446031Y64797248D01*
X43597852Y65081285D01*
X43691343Y65389484D01*
X43715000Y65629678D01*
X43715000Y66790322D01*
X43691343Y67030516D01*
X43597852Y67338715D01*
X43446031Y67622752D01*
X43241714Y67871714D01*
X42992752Y68076031D01*
X42919846Y68115000D01*
X43922627Y68115000D01*
X43985000Y68108857D01*
X44047373Y68115000D01*
X44047380Y68115000D01*
X44233963Y68133377D01*
X44473359Y68205997D01*
X44693988Y68323925D01*
X44887370Y68482630D01*
X44927141Y68531091D01*
X46842398Y70446348D01*
X46949721Y70425000D01*
X47370279Y70425000D01*
X47782756Y70507047D01*
X48171302Y70667988D01*
X48520983Y70901637D01*
X48818363Y71199017D01*
X49052012Y71548698D01*
X49212953Y71937244D01*
X49295000Y72349721D01*
X49295000Y72770279D01*
X49212953Y73182756D01*
X49052012Y73571302D01*
X48818363Y73920983D01*
X48520983Y74218363D01*
X48430000Y74279156D01*
X48430000Y76110233D01*
X48526031Y76227248D01*
X48677852Y76511285D01*
X48771343Y76819484D01*
X48795000Y77059678D01*
X48795000Y78220322D01*
X50605000Y78220322D01*
X50605000Y77059679D01*
X50628657Y76819485D01*
X50722148Y76511286D01*
X50873969Y76227249D01*
X51078286Y75978286D01*
X51327248Y75773969D01*
X51611285Y75622148D01*
X51919484Y75528657D01*
X52240000Y75497089D01*
X52560515Y75528657D01*
X52868714Y75622148D01*
X53152751Y75773969D01*
X53401714Y75978286D01*
X53606031Y76227248D01*
X53757852Y76511285D01*
X53851343Y76819484D01*
X53875000Y77059678D01*
X53875000Y78220322D01*
X53851343Y78460516D01*
X53757852Y78768715D01*
X53606031Y79052752D01*
X53510000Y79169767D01*
X53510000Y79311928D01*
X54510000Y79311928D01*
X54634482Y79324188D01*
X54754180Y79360498D01*
X54864494Y79419463D01*
X54961185Y79498815D01*
X55040537Y79595506D01*
X55099502Y79705820D01*
X55135812Y79825518D01*
X55148072Y79950000D01*
X55148072Y81635656D01*
X68135000Y81635656D01*
X68135000Y81264344D01*
X68207439Y80900166D01*
X68349534Y80557118D01*
X68555825Y80248382D01*
X68818382Y79985825D01*
X69127118Y79779534D01*
X69470166Y79637439D01*
X69834344Y79565000D01*
X70205656Y79565000D01*
X70569834Y79637439D01*
X70912882Y79779534D01*
X71221618Y79985825D01*
X71484175Y80248382D01*
X71690466Y80557118D01*
X71832561Y80900166D01*
X71905000Y81264344D01*
X71905000Y81635656D01*
X71832561Y81999834D01*
X71690466Y82342882D01*
X71484175Y82651618D01*
X71221618Y82914175D01*
X70912882Y83120466D01*
X70569834Y83262561D01*
X70205656Y83335000D01*
X69834344Y83335000D01*
X69470166Y83262561D01*
X69127118Y83120466D01*
X68818382Y82914175D01*
X68555825Y82651618D01*
X68349534Y82342882D01*
X68207439Y81999834D01*
X68135000Y81635656D01*
X55148072Y81635656D01*
X55148072Y82950000D01*
X55135812Y83074482D01*
X55099502Y83194180D01*
X55040537Y83304494D01*
X54961185Y83401185D01*
X54864494Y83480537D01*
X54754180Y83539502D01*
X54634482Y83575812D01*
X54510000Y83588072D01*
X52510000Y83588072D01*
X52385518Y83575812D01*
X52265820Y83539502D01*
X52155506Y83480537D01*
X52058815Y83401185D01*
X51979463Y83304494D01*
X51920498Y83194180D01*
X51884188Y83074482D01*
X51871928Y82950000D01*
X51871928Y81607978D01*
X51386086Y81122136D01*
X51337631Y81082370D01*
X51178926Y80888988D01*
X51168605Y80869678D01*
X51060998Y80668359D01*
X50988377Y80428963D01*
X50963857Y80180000D01*
X50970001Y80117618D01*
X50970001Y79169766D01*
X50873970Y79052752D01*
X50722148Y78768715D01*
X50628657Y78460516D01*
X50605000Y78220322D01*
X48795000Y78220322D01*
X48771343Y78460516D01*
X48677852Y78768715D01*
X48526031Y79052752D01*
X48321714Y79301714D01*
X48072752Y79506031D01*
X47788715Y79657852D01*
X47480516Y79751343D01*
X47160000Y79782911D01*
X46839485Y79751343D01*
X46531286Y79657852D01*
X46247249Y79506031D01*
X45998287Y79301714D01*
X45793970Y79052752D01*
X45642148Y78768715D01*
X45548657Y78460516D01*
X45525000Y78220322D01*
X45525000Y77059679D01*
X45548657Y76819485D01*
X45642148Y76511286D01*
X45793969Y76227249D01*
X45890000Y76110234D01*
X45890001Y74279156D01*
X45799017Y74218363D01*
X45501637Y73920983D01*
X45267988Y73571302D01*
X45107047Y73182756D01*
X45025000Y72770279D01*
X45025000Y72349721D01*
X45046348Y72242398D01*
X43458950Y70655000D01*
X38967380Y70655000D01*
X38905000Y70661144D01*
X38842620Y70655000D01*
X38656037Y70636623D01*
X38416641Y70564003D01*
X38196012Y70446075D01*
X38110991Y70376300D01*
X38051083Y70327135D01*
X38051080Y70327132D01*
X38002630Y70287370D01*
X37962868Y70238919D01*
X36146086Y68422136D01*
X36097631Y68382370D01*
X35938926Y68188988D01*
X35820997Y67968359D01*
X35764351Y67781622D01*
X35730001Y67739766D01*
X35730000Y67739767D01*
X35730000Y69493950D01*
X36682398Y70446348D01*
X36789721Y70425000D01*
X37210279Y70425000D01*
X37622756Y70507047D01*
X38011302Y70667988D01*
X38360983Y70901637D01*
X38658363Y71199017D01*
X38892012Y71548698D01*
X39052953Y71937244D01*
X39135000Y72349721D01*
X39135000Y72770279D01*
X39052953Y73182756D01*
X38892012Y73571302D01*
X38658363Y73920983D01*
X38360983Y74218363D01*
X38270000Y74279156D01*
X38270000Y76110233D01*
X38366031Y76227248D01*
X38517852Y76511285D01*
X38611343Y76819484D01*
X38635000Y77059678D01*
X38635000Y78220322D01*
X40445000Y78220322D01*
X40445000Y77059679D01*
X40468657Y76819485D01*
X40562148Y76511286D01*
X40713969Y76227249D01*
X40918286Y75978286D01*
X41167248Y75773969D01*
X41451285Y75622148D01*
X41759484Y75528657D01*
X42080000Y75497089D01*
X42400515Y75528657D01*
X42708714Y75622148D01*
X42992751Y75773969D01*
X43241714Y75978286D01*
X43446031Y76227248D01*
X43597852Y76511285D01*
X43691343Y76819484D01*
X43715000Y77059678D01*
X43715000Y78220322D01*
X43691343Y78460516D01*
X43597852Y78768715D01*
X43446031Y79052752D01*
X43350000Y79169767D01*
X43350000Y79307089D01*
X43670515Y79338657D01*
X43978714Y79432148D01*
X44262751Y79583969D01*
X44511714Y79788286D01*
X44716031Y80037248D01*
X44867852Y80321285D01*
X44961343Y80629484D01*
X44985000Y80869678D01*
X44985000Y82030322D01*
X44961343Y82270516D01*
X44867852Y82578715D01*
X44716031Y82862752D01*
X44511714Y83111714D01*
X44262752Y83316031D01*
X43978715Y83467852D01*
X43670516Y83561343D01*
X43350000Y83592911D01*
X43029485Y83561343D01*
X42721286Y83467852D01*
X42437249Y83316031D01*
X42188287Y83111714D01*
X41983970Y82862752D01*
X41832148Y82578715D01*
X41738657Y82270516D01*
X41715000Y82030322D01*
X41715000Y81611050D01*
X41226086Y81122136D01*
X41177631Y81082370D01*
X41018926Y80888988D01*
X41008605Y80869678D01*
X40900998Y80668359D01*
X40828377Y80428963D01*
X40803857Y80180000D01*
X40810001Y80117618D01*
X40810001Y79169766D01*
X40713970Y79052752D01*
X40562148Y78768715D01*
X40468657Y78460516D01*
X40445000Y78220322D01*
X38635000Y78220322D01*
X38611343Y78460516D01*
X38517852Y78768715D01*
X38366031Y79052752D01*
X38161714Y79301714D01*
X37912752Y79506031D01*
X37628715Y79657852D01*
X37320516Y79751343D01*
X37000000Y79782911D01*
X36679485Y79751343D01*
X36371286Y79657852D01*
X36087249Y79506031D01*
X35838287Y79301714D01*
X35633970Y79052752D01*
X35482148Y78768715D01*
X35388657Y78460516D01*
X35365000Y78220322D01*
X35365000Y77059679D01*
X35388657Y76819485D01*
X35482148Y76511286D01*
X35633969Y76227249D01*
X35730000Y76110234D01*
X35730001Y74279156D01*
X35639017Y74218363D01*
X35341637Y73920983D01*
X35107988Y73571302D01*
X34947047Y73182756D01*
X34865000Y72770279D01*
X34865000Y72349721D01*
X34886348Y72242398D01*
X33606086Y70962136D01*
X33557631Y70922370D01*
X33398926Y70728988D01*
X33376827Y70687643D01*
X33280998Y70508359D01*
X33208377Y70268963D01*
X33183857Y70020000D01*
X33190001Y69957617D01*
X33190000Y67739766D01*
X33155649Y67781624D01*
X33099003Y67968359D01*
X33035359Y68087429D01*
X32981075Y68188988D01*
X32870334Y68323926D01*
X32862135Y68333917D01*
X32862132Y68333920D01*
X32822370Y68382370D01*
X32773918Y68422134D01*
X28953652Y72242398D01*
X28975000Y72349721D01*
X28975000Y72770279D01*
X28892953Y73182756D01*
X28732012Y73571302D01*
X28498363Y73920983D01*
X28200983Y74218363D01*
X28110000Y74279156D01*
X28110000Y76110233D01*
X28206031Y76227248D01*
X28357852Y76511285D01*
X28451343Y76819484D01*
X28475000Y77059678D01*
X28475000Y78220322D01*
X30285000Y78220322D01*
X30285000Y77059679D01*
X30308657Y76819485D01*
X30402148Y76511286D01*
X30553969Y76227249D01*
X30758286Y75978286D01*
X31007248Y75773969D01*
X31291285Y75622148D01*
X31599484Y75528657D01*
X31920000Y75497089D01*
X32240515Y75528657D01*
X32548714Y75622148D01*
X32832751Y75773969D01*
X33081714Y75978286D01*
X33286031Y76227248D01*
X33437852Y76511285D01*
X33531343Y76819484D01*
X33555000Y77059678D01*
X33555000Y78220322D01*
X33531343Y78460516D01*
X33437852Y78768715D01*
X33286031Y79052752D01*
X33190000Y79169767D01*
X33190000Y79307089D01*
X33510515Y79338657D01*
X33818714Y79432148D01*
X34102751Y79583969D01*
X34351714Y79788286D01*
X34556031Y80037248D01*
X34707852Y80321285D01*
X34801343Y80629484D01*
X34825000Y80869678D01*
X34825000Y82030322D01*
X34801343Y82270516D01*
X34707852Y82578715D01*
X34556031Y82862752D01*
X34351714Y83111714D01*
X34102752Y83316031D01*
X33818715Y83467852D01*
X33510516Y83561343D01*
X33190000Y83592911D01*
X32869485Y83561343D01*
X32561286Y83467852D01*
X32277249Y83316031D01*
X32028287Y83111714D01*
X31823970Y82862752D01*
X31672148Y82578715D01*
X31578657Y82270516D01*
X31555000Y82030322D01*
X31555000Y81611050D01*
X31066086Y81122136D01*
X31017631Y81082370D01*
X30858926Y80888988D01*
X30848605Y80869678D01*
X30740998Y80668359D01*
X30668377Y80428963D01*
X30643857Y80180000D01*
X30650001Y80117618D01*
X30650001Y79169766D01*
X30553970Y79052752D01*
X30402148Y78768715D01*
X30308657Y78460516D01*
X30285000Y78220322D01*
X28475000Y78220322D01*
X28451343Y78460516D01*
X28357852Y78768715D01*
X28206031Y79052752D01*
X28001714Y79301714D01*
X27752752Y79506031D01*
X27468715Y79657852D01*
X27160516Y79751343D01*
X26840000Y79782911D01*
X26519485Y79751343D01*
X26211286Y79657852D01*
X25927249Y79506031D01*
X25678287Y79301714D01*
X25473970Y79052752D01*
X25322148Y78768715D01*
X25228657Y78460516D01*
X25205000Y78220322D01*
X25205000Y77059679D01*
X25228657Y76819485D01*
X25322148Y76511286D01*
X25473969Y76227249D01*
X25570000Y76110234D01*
X25570001Y74279156D01*
X25479017Y74218363D01*
X25181637Y73920983D01*
X24947988Y73571302D01*
X24787047Y73182756D01*
X24705000Y72770279D01*
X24705000Y72349721D01*
X24787047Y71937244D01*
X24947988Y71548698D01*
X25181637Y71199017D01*
X25479017Y70901637D01*
X25828698Y70667988D01*
X26217244Y70507047D01*
X26629721Y70425000D01*
X27050279Y70425000D01*
X27157602Y70446348D01*
X29262601Y68341348D01*
X29059485Y68321343D01*
X28751286Y68227852D01*
X28467249Y68076031D01*
X28218287Y67871714D01*
X28110001Y67739766D01*
X28001714Y67871714D01*
X27752752Y68076031D01*
X27468715Y68227852D01*
X27160516Y68321343D01*
X26840000Y68352911D01*
X26519485Y68321343D01*
X26211286Y68227852D01*
X25927249Y68076031D01*
X25678287Y67871714D01*
X25570001Y67739766D01*
X25461714Y67871714D01*
X25212752Y68076031D01*
X24928715Y68227852D01*
X24620516Y68321343D01*
X24300000Y68352911D01*
X23979485Y68321343D01*
X23671286Y68227852D01*
X23387249Y68076031D01*
X23138287Y67871714D01*
X23030001Y67739766D01*
X22995648Y67781624D01*
X22968320Y67871714D01*
X22939003Y67968359D01*
X22821075Y68188988D01*
X22662370Y68382370D01*
X22613914Y68422137D01*
X16680000Y74356050D01*
X16680000Y78220322D01*
X20125000Y78220322D01*
X20125000Y77059679D01*
X20148657Y76819485D01*
X20242148Y76511286D01*
X20393969Y76227249D01*
X20598286Y75978286D01*
X20847248Y75773969D01*
X21131285Y75622148D01*
X21439484Y75528657D01*
X21760000Y75497089D01*
X22080515Y75528657D01*
X22388714Y75622148D01*
X22672751Y75773969D01*
X22921714Y75978286D01*
X23126031Y76227248D01*
X23277852Y76511285D01*
X23371343Y76819484D01*
X23395000Y77059678D01*
X23395000Y78220322D01*
X23371343Y78460516D01*
X23277852Y78768715D01*
X23126031Y79052752D01*
X23030000Y79169767D01*
X23030000Y79311928D01*
X24030000Y79311928D01*
X24154482Y79324188D01*
X24274180Y79360498D01*
X24384494Y79419463D01*
X24481185Y79498815D01*
X24560537Y79595506D01*
X24619502Y79705820D01*
X24655812Y79825518D01*
X24668072Y79950000D01*
X24668072Y82950000D01*
X24655812Y83074482D01*
X24619502Y83194180D01*
X24560537Y83304494D01*
X24481185Y83401185D01*
X24384494Y83480537D01*
X24274180Y83539502D01*
X24154482Y83575812D01*
X24030000Y83588072D01*
X22030000Y83588072D01*
X21905518Y83575812D01*
X21785820Y83539502D01*
X21675506Y83480537D01*
X21578815Y83401185D01*
X21499463Y83304494D01*
X21440498Y83194180D01*
X21404188Y83074482D01*
X21391928Y82950000D01*
X21391928Y81607978D01*
X20906086Y81122136D01*
X20857631Y81082370D01*
X20698926Y80888988D01*
X20688605Y80869678D01*
X20580998Y80668359D01*
X20508377Y80428963D01*
X20483857Y80180000D01*
X20490001Y80117618D01*
X20490001Y79169766D01*
X20393970Y79052752D01*
X20242148Y78768715D01*
X20148657Y78460516D01*
X20125000Y78220322D01*
X16680000Y78220322D01*
X16680000Y79374299D01*
X16764494Y79419463D01*
X16861185Y79498815D01*
X16940537Y79595506D01*
X16999502Y79705820D01*
X17035812Y79825518D01*
X17048072Y79950000D01*
X17048072Y82950000D01*
X17035812Y83074482D01*
X16999502Y83194180D01*
X16940537Y83304494D01*
X16861185Y83401185D01*
X16764494Y83480537D01*
X16654180Y83539502D01*
X16534482Y83575812D01*
X16410000Y83588072D01*
X14410000Y83588072D01*
X14285518Y83575812D01*
X14165820Y83539502D01*
X14055506Y83480537D01*
X13958815Y83401185D01*
X13879463Y83304494D01*
X13820498Y83194180D01*
X13784188Y83074482D01*
X13771928Y82950000D01*
X13771928Y79950000D01*
X13784188Y79825518D01*
X13820498Y79705820D01*
X13879463Y79595506D01*
X13958815Y79498815D01*
X14055506Y79419463D01*
X14140001Y79374299D01*
X14140000Y73892373D01*
X14133857Y73830000D01*
X14140000Y73767627D01*
X14140000Y73767621D01*
X14158377Y73581038D01*
X14230997Y73341642D01*
X14348925Y73121013D01*
X14507630Y72927630D01*
X14556091Y72887859D01*
X19102601Y68341348D01*
X18899485Y68321343D01*
X18591286Y68227852D01*
X18307249Y68076031D01*
X18058287Y67871714D01*
X17950001Y67739766D01*
X17841714Y67871714D01*
X17592752Y68076031D01*
X17308715Y68227852D01*
X17000516Y68321343D01*
X16680000Y68352911D01*
X16359485Y68321343D01*
X16051286Y68227852D01*
X15767249Y68076031D01*
X15518287Y67871714D01*
X15410001Y67739766D01*
X15410000Y67739767D01*
X15410000Y69957628D01*
X15416143Y70020001D01*
X15410000Y70082374D01*
X15410000Y70082380D01*
X15391623Y70268963D01*
X15386040Y70287370D01*
X15359062Y70376301D01*
X15319003Y70508359D01*
X15201075Y70728988D01*
X15042370Y70922370D01*
X14993914Y70962137D01*
X13738072Y72217978D01*
X13738072Y73560000D01*
X13725812Y73684482D01*
X13689502Y73804180D01*
X13630537Y73914494D01*
X13551185Y74011185D01*
X13454494Y74090537D01*
X13344180Y74149502D01*
X13224482Y74185812D01*
X13100000Y74198072D01*
X10100000Y74198072D01*
X9975518Y74185812D01*
X9855820Y74149502D01*
X9745506Y74090537D01*
X9648815Y74011185D01*
X9569463Y73914494D01*
X9510498Y73804180D01*
X9474188Y73684482D01*
X9461928Y73560000D01*
X9461928Y71560000D01*
X9474188Y71435518D01*
X9510498Y71315820D01*
X9569463Y71205506D01*
X9648815Y71108815D01*
X9745506Y71029463D01*
X9855820Y70970498D01*
X9975518Y70934188D01*
X10100000Y70921928D01*
X11442022Y70921928D01*
X12870001Y69493948D01*
X12870000Y67739766D01*
X12761714Y67871714D01*
X12512752Y68076031D01*
X12228715Y68227852D01*
X11920516Y68321343D01*
X11600000Y68352911D01*
X11279485Y68321343D01*
X10971286Y68227852D01*
X10687249Y68076031D01*
X10438287Y67871714D01*
X10233970Y67622752D01*
X10082148Y67338715D01*
X9988657Y67030516D01*
X9965000Y66790322D01*
X9965000Y65629679D01*
X9988657Y65389485D01*
X10082148Y65081286D01*
X10233969Y64797249D01*
X10330000Y64680233D01*
X10330000Y63377621D01*
X10330001Y63377611D01*
X10330000Y54085135D01*
X10323857Y54022762D01*
X10330000Y53960389D01*
X10330000Y53960383D01*
X10338151Y53877630D01*
X10348377Y53773799D01*
X10352878Y53758963D01*
X10420997Y53534404D01*
X10538925Y53313775D01*
X10697630Y53120392D01*
X10746091Y53080621D01*
X15708457Y48118254D01*
X15748224Y48069798D01*
X15941606Y47911093D01*
X16112582Y47819705D01*
X16162235Y47793165D01*
X16401631Y47720545D01*
X16650594Y47696024D01*
X16712974Y47702168D01*
X18445894Y47702168D01*
X18378657Y47480516D01*
X18347089Y47160000D01*
X18378657Y46839484D01*
X18472148Y46531285D01*
X18623969Y46247248D01*
X18682655Y46175739D01*
X18635506Y46150537D01*
X18538815Y46071185D01*
X18459463Y45974494D01*
X18400498Y45864180D01*
X18364188Y45744482D01*
X18351928Y45620000D01*
X18351928Y43620000D01*
X18364188Y43495518D01*
X18400498Y43375820D01*
X18459463Y43265506D01*
X18538815Y43168815D01*
X18635506Y43089463D01*
X18745820Y43030498D01*
X18865518Y42994188D01*
X18990000Y42981928D01*
X21990000Y42981928D01*
X22114482Y42994188D01*
X22234180Y43030498D01*
X22344494Y43089463D01*
X22441185Y43168815D01*
X22520537Y43265506D01*
X22579502Y43375820D01*
X22615812Y43495518D01*
X22628072Y43620000D01*
X22628072Y45620000D01*
X22615812Y45744482D01*
X22579502Y45864180D01*
X22565701Y45890000D01*
X23023857Y45890000D01*
X23030001Y45827617D01*
X23030000Y42339766D01*
X22921714Y42471714D01*
X22672752Y42676031D01*
X22388715Y42827852D01*
X22080516Y42921343D01*
X21760000Y42952911D01*
X21439485Y42921343D01*
X21131286Y42827852D01*
X20847249Y42676031D01*
X20598287Y42471714D01*
X20490001Y42339766D01*
X20381714Y42471714D01*
X20132752Y42676031D01*
X19848715Y42827852D01*
X19540516Y42921343D01*
X19220000Y42952911D01*
X18899485Y42921343D01*
X18591286Y42827852D01*
X18307249Y42676031D01*
X18058287Y42471714D01*
X17950001Y42339766D01*
X17841714Y42471714D01*
X17592752Y42676031D01*
X17308715Y42827852D01*
X17000516Y42921343D01*
X16680000Y42952911D01*
X16359485Y42921343D01*
X16051286Y42827852D01*
X15767249Y42676031D01*
X15518287Y42471714D01*
X15410001Y42339766D01*
X15301714Y42471714D01*
X15052752Y42676031D01*
X14768715Y42827852D01*
X14460516Y42921343D01*
X14140000Y42952911D01*
X13819485Y42921343D01*
X13511286Y42827852D01*
X13227249Y42676031D01*
X12978287Y42471714D01*
X12870001Y42339766D01*
X12761714Y42471714D01*
X12512752Y42676031D01*
X12228715Y42827852D01*
X11920516Y42921343D01*
X11600000Y42952911D01*
X11279485Y42921343D01*
X10971286Y42827852D01*
X10687249Y42676031D01*
X10438287Y42471714D01*
X10233970Y42222752D01*
X10082148Y41938715D01*
X9988657Y41630516D01*
X9965000Y41390322D01*
X9965000Y40229679D01*
X9988657Y39989485D01*
X10082148Y39681286D01*
X10233969Y39397249D01*
X10438286Y39148286D01*
X10687248Y38943969D01*
X10971285Y38792148D01*
X11279484Y38698657D01*
X11600000Y38667089D01*
X11920515Y38698657D01*
X12228714Y38792148D01*
X12512751Y38943969D01*
X12761714Y39148286D01*
X12870000Y39280234D01*
X12978286Y39148286D01*
X13227248Y38943969D01*
X13511285Y38792148D01*
X13819484Y38698657D01*
X14140000Y38667089D01*
X14460515Y38698657D01*
X14768714Y38792148D01*
X15052751Y38943969D01*
X15301714Y39148286D01*
X15410000Y39280234D01*
X15518286Y39148286D01*
X15767248Y38943969D01*
X16051285Y38792148D01*
X16359484Y38698657D01*
X16680000Y38667089D01*
X17000515Y38698657D01*
X17308714Y38792148D01*
X17592751Y38943969D01*
X17841714Y39148286D01*
X17950000Y39280234D01*
X18058286Y39148286D01*
X18307248Y38943969D01*
X18591285Y38792148D01*
X18899484Y38698657D01*
X19220000Y38667089D01*
X19540515Y38698657D01*
X19848714Y38792148D01*
X20132751Y38943969D01*
X20381714Y39148286D01*
X20490000Y39280234D01*
X20598286Y39148286D01*
X20847248Y38943969D01*
X21131285Y38792148D01*
X21439484Y38698657D01*
X21760000Y38667089D01*
X22080515Y38698657D01*
X22388714Y38792148D01*
X22672751Y38943969D01*
X22921714Y39148286D01*
X23030000Y39280234D01*
X23138286Y39148286D01*
X23387248Y38943969D01*
X23671285Y38792148D01*
X23979484Y38698657D01*
X24300000Y38667089D01*
X24620515Y38698657D01*
X24928714Y38792148D01*
X25212751Y38943969D01*
X25461714Y39148286D01*
X25570000Y39280234D01*
X25678286Y39148286D01*
X25927248Y38943969D01*
X26211285Y38792148D01*
X26519484Y38698657D01*
X26840000Y38667089D01*
X27160515Y38698657D01*
X27468714Y38792148D01*
X27752751Y38943969D01*
X28001714Y39148286D01*
X28110000Y39280234D01*
X28218286Y39148286D01*
X28467248Y38943969D01*
X28751285Y38792148D01*
X29059484Y38698657D01*
X29380000Y38667089D01*
X29700515Y38698657D01*
X30008714Y38792148D01*
X30112310Y38847521D01*
X30027988Y38721324D01*
X29867047Y38332778D01*
X29785000Y37920301D01*
X29785000Y37499743D01*
X29867047Y37087266D01*
X30027988Y36698720D01*
X30250972Y36365000D01*
X9771890Y36365000D01*
X9724078Y36370812D01*
X9647126Y36365000D01*
X9632620Y36365000D01*
X9584909Y36360301D01*
X9474621Y36351971D01*
X9460561Y36348054D01*
X9446037Y36346623D01*
X9340194Y36314516D01*
X9233633Y36284825D01*
X9220607Y36278240D01*
X9206641Y36274003D01*
X9109062Y36221846D01*
X9010376Y36171954D01*
X8998892Y36162960D01*
X8986012Y36156075D01*
X8900462Y36085866D01*
X8813427Y36017697D01*
X8803917Y36006633D01*
X8792630Y35997370D01*
X8722432Y35911834D01*
X8691215Y35875516D01*
X8682893Y35863655D01*
X8633925Y35803988D01*
X8611215Y35761500D01*
X8047888Y34958648D01*
X7998926Y34898988D01*
X7946784Y34801436D01*
X7892432Y34705098D01*
X7887878Y34691230D01*
X7880998Y34678359D01*
X7848891Y34572517D01*
X7814376Y34467419D01*
X7812615Y34452929D01*
X7808378Y34438963D01*
X7797537Y34328895D01*
X7784188Y34219079D01*
X7790001Y34142115D01*
X7790001Y33558072D01*
X7560000Y33558072D01*
X7435518Y33545812D01*
X7315820Y33509502D01*
X7266307Y33483037D01*
X7170981Y33578363D01*
X6821300Y33812012D01*
X6432754Y33972953D01*
X6020277Y34055000D01*
X5599719Y34055000D01*
X5187242Y33972953D01*
X4798696Y33812012D01*
X4449015Y33578363D01*
X4151635Y33280983D01*
X3917986Y32931302D01*
X3757045Y32542756D01*
X3674998Y32130279D01*
X830000Y32130279D01*
X830000Y81635656D01*
X2095000Y81635656D01*
X2095000Y81264344D01*
X2167439Y80900166D01*
X2309534Y80557118D01*
X2515825Y80248382D01*
X2778382Y79985825D01*
X3087118Y79779534D01*
X3430166Y79637439D01*
X3794344Y79565000D01*
X4165656Y79565000D01*
X4529834Y79637439D01*
X4872882Y79779534D01*
X5181618Y79985825D01*
X5444175Y80248382D01*
X5650466Y80557118D01*
X5792561Y80900166D01*
X5865000Y81264344D01*
X5865000Y81635656D01*
X5792561Y81999834D01*
X5650466Y82342882D01*
X5444175Y82651618D01*
X5181618Y82914175D01*
X4872882Y83120466D01*
X4529834Y83262561D01*
X4165656Y83335000D01*
X3794344Y83335000D01*
X3430166Y83262561D01*
X3087118Y83120466D01*
X2778382Y82914175D01*
X2515825Y82651618D01*
X2309534Y82342882D01*
X2167439Y81999834D01*
X2095000Y81635656D01*
X830000Y81635656D01*
X830000Y84600000D01*
X73170001Y84600000D01*
X73170000Y830000D01*
G37*
X73170000Y830000D02*
X830000Y830000D01*
X830000Y4165656D01*
X2095000Y4165656D01*
X2095000Y3794344D01*
X2167439Y3430166D01*
X2309534Y3087118D01*
X2515825Y2778382D01*
X2778382Y2515825D01*
X3087118Y2309534D01*
X3430166Y2167439D01*
X3794344Y2095000D01*
X4165656Y2095000D01*
X4529834Y2167439D01*
X4872882Y2309534D01*
X5181618Y2515825D01*
X5444175Y2778382D01*
X5650466Y3087118D01*
X5792561Y3430166D01*
X5865000Y3794344D01*
X5865000Y4165656D01*
X68135000Y4165656D01*
X68135000Y3794344D01*
X68207439Y3430166D01*
X68349534Y3087118D01*
X68555825Y2778382D01*
X68818382Y2515825D01*
X69127118Y2309534D01*
X69470166Y2167439D01*
X69834344Y2095000D01*
X70205656Y2095000D01*
X70569834Y2167439D01*
X70912882Y2309534D01*
X71221618Y2515825D01*
X71484175Y2778382D01*
X71690466Y3087118D01*
X71832561Y3430166D01*
X71905000Y3794344D01*
X71905000Y4165656D01*
X71832561Y4529834D01*
X71690466Y4872882D01*
X71484175Y5181618D01*
X71221618Y5444175D01*
X70912882Y5650466D01*
X70569834Y5792561D01*
X70205656Y5865000D01*
X69834344Y5865000D01*
X69470166Y5792561D01*
X69127118Y5650466D01*
X68818382Y5444175D01*
X68555825Y5181618D01*
X68349534Y4872882D01*
X68207439Y4529834D01*
X68135000Y4165656D01*
X5865000Y4165656D01*
X5792561Y4529834D01*
X5650466Y4872882D01*
X5444175Y5181618D01*
X5181618Y5444175D01*
X4872882Y5650466D01*
X4529834Y5792561D01*
X4165656Y5865000D01*
X3794344Y5865000D01*
X3430166Y5792561D01*
X3087118Y5650466D01*
X2778382Y5444175D01*
X2515825Y5181618D01*
X2309534Y4872882D01*
X2167439Y4529834D01*
X2095000Y4165656D01*
X830000Y4165656D01*
X830000Y32130279D01*
X3674998Y32130279D01*
X3674998Y31709721D01*
X3757045Y31297244D01*
X3917986Y30908698D01*
X4128343Y30593876D01*
X3992988Y30391302D01*
X3832047Y30002756D01*
X3750000Y29590279D01*
X3750000Y29169721D01*
X3832047Y28757244D01*
X3992988Y28368698D01*
X4226637Y28019017D01*
X4524017Y27721637D01*
X4873698Y27487988D01*
X5262244Y27327047D01*
X5674721Y27245000D01*
X6095279Y27245000D01*
X6507756Y27327047D01*
X6896302Y27487988D01*
X7139200Y27650287D01*
X7042148Y27468715D01*
X6948657Y27160516D01*
X6917089Y26840000D01*
X6948657Y26519484D01*
X7042148Y26211285D01*
X7193969Y25927248D01*
X7398286Y25678286D01*
X7530233Y25570000D01*
X7398286Y25461714D01*
X7193969Y25212752D01*
X7042148Y24928715D01*
X6948657Y24620516D01*
X6917089Y24300000D01*
X6948657Y23979484D01*
X7042148Y23671285D01*
X7193969Y23387248D01*
X7398286Y23138286D01*
X7530233Y23030000D01*
X7398286Y22921714D01*
X7193969Y22672752D01*
X7042148Y22388715D01*
X6948657Y22080516D01*
X6917089Y21760000D01*
X6948657Y21439484D01*
X7042148Y21131285D01*
X7193969Y20847248D01*
X7398286Y20598286D01*
X7530233Y20490000D01*
X7398286Y20381714D01*
X7193969Y20132752D01*
X7042148Y19848715D01*
X6948657Y19540516D01*
X6917089Y19220000D01*
X6948657Y18899484D01*
X7042148Y18591285D01*
X7139200Y18409713D01*
X6896302Y18572012D01*
X6507756Y18732953D01*
X6095279Y18815000D01*
X5674721Y18815000D01*
X5262244Y18732953D01*
X4873698Y18572012D01*
X4524017Y18338363D01*
X4226637Y18040983D01*
X3992988Y17691302D01*
X3832047Y17302756D01*
X3750000Y16890279D01*
X3750000Y16469721D01*
X3832047Y16057244D01*
X3992988Y15668698D01*
X4226637Y15319017D01*
X4524017Y15021637D01*
X4873698Y14787988D01*
X5262244Y14627047D01*
X5674721Y14545000D01*
X6095279Y14545000D01*
X6507756Y14627047D01*
X6896302Y14787988D01*
X7139200Y14950287D01*
X7042148Y14768715D01*
X6948657Y14460516D01*
X6917089Y14140000D01*
X6948657Y13819484D01*
X7042148Y13511285D01*
X7193969Y13227248D01*
X7398286Y12978286D01*
X7409630Y12968976D01*
X7401637Y12960983D01*
X7167988Y12611302D01*
X7007047Y12222756D01*
X6925000Y11810279D01*
X6925000Y11389721D01*
X7007047Y10977244D01*
X7167988Y10588698D01*
X7401637Y10239017D01*
X7699017Y9941637D01*
X8048698Y9707988D01*
X8437244Y9547047D01*
X8849721Y9465000D01*
X9270279Y9465000D01*
X9682756Y9547047D01*
X9961928Y9662684D01*
X9961928Y7560000D01*
X9974188Y7435518D01*
X10010498Y7315820D01*
X10069463Y7205506D01*
X10148815Y7108815D01*
X10245506Y7029463D01*
X10355820Y6970498D01*
X10475518Y6934188D01*
X10600000Y6921928D01*
X12600000Y6921928D01*
X12724482Y6934188D01*
X12844180Y6970498D01*
X12954494Y7029463D01*
X13051185Y7108815D01*
X13130537Y7205506D01*
X13155739Y7252655D01*
X13227249Y7193969D01*
X13511286Y7042148D01*
X13819485Y6948657D01*
X14140000Y6917089D01*
X14460516Y6948657D01*
X14768715Y7042148D01*
X15052752Y7193969D01*
X15301714Y7398286D01*
X15410001Y7530234D01*
X15518287Y7398286D01*
X15767249Y7193969D01*
X16051286Y7042148D01*
X16359485Y6948657D01*
X16680000Y6917089D01*
X17000516Y6948657D01*
X17308715Y7042148D01*
X17592752Y7193969D01*
X17841714Y7398286D01*
X17950001Y7530234D01*
X18058287Y7398286D01*
X18307249Y7193969D01*
X18591286Y7042148D01*
X18899485Y6948657D01*
X19220000Y6917089D01*
X19540516Y6948657D01*
X19848715Y7042148D01*
X20132752Y7193969D01*
X20381714Y7398286D01*
X20586031Y7647248D01*
X20737852Y7931285D01*
X20831343Y8239484D01*
X20855000Y8479678D01*
X20855000Y9640322D01*
X20831343Y9880516D01*
X20737852Y10188715D01*
X20586031Y10472752D01*
X20490000Y10589767D01*
X20490000Y15237666D01*
X20631285Y15162148D01*
X20939484Y15068657D01*
X21179678Y15045000D01*
X22308950Y15045000D01*
X22896348Y14457602D01*
X22875000Y14350279D01*
X22875000Y13929721D01*
X22957047Y13517244D01*
X23117988Y13128698D01*
X23351637Y12779017D01*
X23540654Y12590000D01*
X23276637Y12325983D01*
X23042988Y11976302D01*
X22882047Y11587756D01*
X22800000Y11175279D01*
X22800000Y10754721D01*
X22882047Y10342244D01*
X23042988Y9953698D01*
X23276637Y9604017D01*
X23574017Y9306637D01*
X23923698Y9072988D01*
X24312244Y8912047D01*
X24724721Y8830000D01*
X25145279Y8830000D01*
X25557756Y8912047D01*
X25946302Y9072988D01*
X26295983Y9306637D01*
X26593363Y9604017D01*
X26827012Y9953698D01*
X26987953Y10342244D01*
X27070000Y10754721D01*
X27070000Y11175279D01*
X26987953Y11587756D01*
X26827012Y11976302D01*
X26593363Y12325983D01*
X26404346Y12515000D01*
X26668363Y12779017D01*
X26902012Y13128698D01*
X27062953Y13517244D01*
X27145000Y13929721D01*
X27145000Y14350279D01*
X27099740Y14577817D01*
X27264721Y14545000D01*
X27685279Y14545000D01*
X28097756Y14627047D01*
X28486302Y14787988D01*
X28729200Y14950287D01*
X28632148Y14768715D01*
X28538657Y14460516D01*
X28507089Y14140000D01*
X28538657Y13819484D01*
X28632148Y13511285D01*
X28783969Y13227248D01*
X28988286Y12978286D01*
X29091662Y12893448D01*
X29003698Y12857012D01*
X28654017Y12623363D01*
X28356637Y12325983D01*
X28122988Y11976302D01*
X27962047Y11587756D01*
X27880000Y11175279D01*
X27880000Y10754721D01*
X27962047Y10342244D01*
X28122988Y9953698D01*
X28356637Y9604017D01*
X28654017Y9306637D01*
X29003698Y9072988D01*
X29392244Y8912047D01*
X29804721Y8830000D01*
X30225279Y8830000D01*
X30637756Y8912047D01*
X31026302Y9072988D01*
X31375983Y9306637D01*
X31551928Y9482582D01*
X31551928Y7560000D01*
X31564188Y7435518D01*
X31600498Y7315820D01*
X31659463Y7205506D01*
X31738815Y7108815D01*
X31835506Y7029463D01*
X31945820Y6970498D01*
X32065518Y6934188D01*
X32190000Y6921928D01*
X34190000Y6921928D01*
X34314482Y6934188D01*
X34434180Y6970498D01*
X34544494Y7029463D01*
X34641185Y7108815D01*
X34720537Y7205506D01*
X34745739Y7252655D01*
X34817249Y7193969D01*
X35101286Y7042148D01*
X35409485Y6948657D01*
X35730000Y6917089D01*
X36050516Y6948657D01*
X36358715Y7042148D01*
X36642752Y7193969D01*
X36891714Y7398286D01*
X37000001Y7530234D01*
X37108287Y7398286D01*
X37357249Y7193969D01*
X37641286Y7042148D01*
X37949485Y6948657D01*
X38270000Y6917089D01*
X38590516Y6948657D01*
X38898715Y7042148D01*
X39182752Y7193969D01*
X39431714Y7398286D01*
X39540001Y7530234D01*
X39648287Y7398286D01*
X39897249Y7193969D01*
X40181286Y7042148D01*
X40489485Y6948657D01*
X40810000Y6917089D01*
X41130516Y6948657D01*
X41438715Y7042148D01*
X41722752Y7193969D01*
X41971714Y7398286D01*
X42176031Y7647248D01*
X42327852Y7931285D01*
X42421343Y8239484D01*
X42445000Y8479678D01*
X42445000Y9640322D01*
X42421343Y9880516D01*
X42327852Y10188715D01*
X42176031Y10472752D01*
X42080000Y10589767D01*
X42080000Y15237666D01*
X42221285Y15162148D01*
X42529484Y15068657D01*
X42769678Y15045000D01*
X43814755Y15045000D01*
X44771362Y14088393D01*
X44632988Y13881302D01*
X44472047Y13492756D01*
X44390000Y13080279D01*
X44390000Y12659721D01*
X44472047Y12247244D01*
X44632988Y11858698D01*
X44805844Y11600000D01*
X44632988Y11341302D01*
X44472047Y10952756D01*
X44390000Y10540279D01*
X44390000Y10119721D01*
X44472047Y9707244D01*
X44632988Y9318698D01*
X44866637Y8969017D01*
X45164017Y8671637D01*
X45513698Y8437988D01*
X45902244Y8277047D01*
X46314721Y8195000D01*
X46735279Y8195000D01*
X47147756Y8277047D01*
X47536302Y8437988D01*
X47885983Y8671637D01*
X48183363Y8969017D01*
X48417012Y9318698D01*
X48577953Y9707244D01*
X48660000Y10119721D01*
X48660000Y10540279D01*
X48577953Y10952756D01*
X48417012Y11341302D01*
X48244156Y11600000D01*
X48417012Y11858698D01*
X48577953Y12247244D01*
X48660000Y12659721D01*
X48660000Y13080279D01*
X48577953Y13492756D01*
X48417012Y13881302D01*
X48183363Y14230983D01*
X47885983Y14528363D01*
X47861084Y14545000D01*
X48005279Y14545000D01*
X48417756Y14627047D01*
X48806302Y14787988D01*
X49049200Y14950287D01*
X48952148Y14768715D01*
X48858657Y14460516D01*
X48827089Y14140000D01*
X48858657Y13819484D01*
X48952148Y13511285D01*
X49103969Y13227248D01*
X49308286Y12978286D01*
X49319630Y12968976D01*
X49311637Y12960983D01*
X49077988Y12611302D01*
X48917047Y12222756D01*
X48835000Y11810279D01*
X48835000Y11389721D01*
X48917047Y10977244D01*
X49077988Y10588698D01*
X49311637Y10239017D01*
X49609017Y9941637D01*
X49958698Y9707988D01*
X50347244Y9547047D01*
X50759721Y9465000D01*
X51180279Y9465000D01*
X51592756Y9547047D01*
X51981302Y9707988D01*
X52330983Y9941637D01*
X52628363Y10239017D01*
X52842836Y10560000D01*
X53141928Y10560000D01*
X53141928Y7560000D01*
X53154188Y7435518D01*
X53190498Y7315820D01*
X53249463Y7205506D01*
X53328815Y7108815D01*
X53425506Y7029463D01*
X53535820Y6970498D01*
X53655518Y6934188D01*
X53780000Y6921928D01*
X55780000Y6921928D01*
X55904482Y6934188D01*
X56024180Y6970498D01*
X56134494Y7029463D01*
X56231185Y7108815D01*
X56310537Y7205506D01*
X56335739Y7252655D01*
X56407249Y7193969D01*
X56691286Y7042148D01*
X56999485Y6948657D01*
X57320000Y6917089D01*
X57640516Y6948657D01*
X57948715Y7042148D01*
X58232752Y7193969D01*
X58481714Y7398286D01*
X58590001Y7530234D01*
X58698287Y7398286D01*
X58947249Y7193969D01*
X59231286Y7042148D01*
X59539485Y6948657D01*
X59860000Y6917089D01*
X60180516Y6948657D01*
X60488715Y7042148D01*
X60772752Y7193969D01*
X61021714Y7398286D01*
X61130001Y7530234D01*
X61238287Y7398286D01*
X61487249Y7193969D01*
X61771286Y7042148D01*
X62079485Y6948657D01*
X62400000Y6917089D01*
X62720516Y6948657D01*
X63028715Y7042148D01*
X63312752Y7193969D01*
X63561714Y7398286D01*
X63766031Y7647248D01*
X63917852Y7931285D01*
X64011343Y8239484D01*
X64035000Y8479678D01*
X64035000Y9640322D01*
X64011343Y9880516D01*
X63917852Y10188715D01*
X63766031Y10472752D01*
X63670000Y10589767D01*
X63670000Y17423950D01*
X64196051Y17950000D01*
X64680233Y17950000D01*
X64548286Y17841714D01*
X64343969Y17592752D01*
X64192148Y17308715D01*
X64098657Y17000516D01*
X64067089Y16680000D01*
X64098657Y16359484D01*
X64192148Y16051285D01*
X64343969Y15767248D01*
X64548286Y15518286D01*
X64797248Y15313969D01*
X65081285Y15162148D01*
X65389484Y15068657D01*
X65629678Y15045000D01*
X66790322Y15045000D01*
X67030516Y15068657D01*
X67338715Y15162148D01*
X67622752Y15313969D01*
X67692024Y15370819D01*
X67726637Y15319017D01*
X68024017Y15021637D01*
X68373698Y14787988D01*
X68762244Y14627047D01*
X69174721Y14545000D01*
X69595279Y14545000D01*
X70007756Y14627047D01*
X70396302Y14787988D01*
X70745983Y15021637D01*
X71043363Y15319017D01*
X71277012Y15668698D01*
X71437953Y16057244D01*
X71520000Y16469721D01*
X71520000Y16890279D01*
X71437953Y17302756D01*
X71277012Y17691302D01*
X71043363Y18040983D01*
X70745983Y18338363D01*
X70396302Y18572012D01*
X70007756Y18732953D01*
X69595279Y18815000D01*
X69174721Y18815000D01*
X68762244Y18732953D01*
X68373698Y18572012D01*
X68130800Y18409713D01*
X68227852Y18591285D01*
X68321343Y18899484D01*
X68352911Y19220000D01*
X68321343Y19540516D01*
X68227852Y19848715D01*
X68076031Y20132752D01*
X67871714Y20381714D01*
X67739767Y20490000D01*
X67871714Y20598286D01*
X68076031Y20847248D01*
X68227852Y21131285D01*
X68321343Y21439484D01*
X68352911Y21760000D01*
X68321343Y22080516D01*
X68227852Y22388715D01*
X68076031Y22672752D01*
X67871714Y22921714D01*
X67739767Y23030000D01*
X67871714Y23138286D01*
X68076031Y23387248D01*
X68227852Y23671285D01*
X68321343Y23979484D01*
X68352911Y24300000D01*
X68321343Y24620516D01*
X68227852Y24928715D01*
X68076031Y25212752D01*
X67871714Y25461714D01*
X67739767Y25570000D01*
X67871714Y25678286D01*
X68076031Y25927248D01*
X68227852Y26211285D01*
X68321343Y26519484D01*
X68352911Y26840000D01*
X68321343Y27160516D01*
X68227852Y27468715D01*
X68076031Y27752752D01*
X67871714Y28001714D01*
X67622752Y28206031D01*
X67338715Y28357852D01*
X67030516Y28451343D01*
X66790322Y28475000D01*
X65629678Y28475000D01*
X65389484Y28451343D01*
X65081285Y28357852D01*
X64797248Y28206031D01*
X64680233Y28110000D01*
X63502372Y28110000D01*
X63439999Y28116143D01*
X63377626Y28110000D01*
X63377620Y28110000D01*
X63216755Y28094156D01*
X63191036Y28091623D01*
X63118416Y28069594D01*
X62951641Y28019003D01*
X62731012Y27901075D01*
X62537630Y27742370D01*
X62497863Y27693914D01*
X53926091Y19122141D01*
X53877630Y19082370D01*
X53718925Y18888987D01*
X53600997Y18668358D01*
X53553267Y18511012D01*
X53531228Y18438359D01*
X53528377Y18428962D01*
X53510000Y18242379D01*
X53510000Y18242373D01*
X53503857Y18180000D01*
X53510000Y18117627D01*
X53510001Y11892389D01*
X53510000Y11892379D01*
X53510000Y11135701D01*
X53425506Y11090537D01*
X53328815Y11011185D01*
X53249463Y10914494D01*
X53190498Y10804180D01*
X53154188Y10684482D01*
X53141928Y10560000D01*
X52842836Y10560000D01*
X52862012Y10588698D01*
X53022953Y10977244D01*
X53105000Y11389721D01*
X53105000Y11810279D01*
X53022953Y12222756D01*
X52862012Y12611302D01*
X52628363Y12960983D01*
X52620370Y12968976D01*
X52631714Y12978286D01*
X52836031Y13227248D01*
X52987852Y13511285D01*
X53081343Y13819484D01*
X53112911Y14140000D01*
X53081343Y14460516D01*
X52987852Y14768715D01*
X52836031Y15052752D01*
X52631714Y15301714D01*
X52499767Y15410000D01*
X52631714Y15518286D01*
X52836031Y15767248D01*
X52987852Y16051285D01*
X53081343Y16359484D01*
X53112911Y16680000D01*
X53081343Y17000516D01*
X52987852Y17308715D01*
X52836031Y17592752D01*
X52631714Y17841714D01*
X52499767Y17950000D01*
X52631714Y18058286D01*
X52836031Y18307248D01*
X52987852Y18591285D01*
X53081343Y18899484D01*
X53112911Y19220000D01*
X53081343Y19540516D01*
X52987852Y19848715D01*
X52836031Y20132752D01*
X52631714Y20381714D01*
X52499767Y20490000D01*
X52631714Y20598286D01*
X52836031Y20847248D01*
X52987852Y21131285D01*
X53081343Y21439484D01*
X53112911Y21760000D01*
X53081343Y22080516D01*
X52987852Y22388715D01*
X52836031Y22672752D01*
X52631714Y22921714D01*
X52499767Y23030000D01*
X52631714Y23138286D01*
X52836031Y23387248D01*
X52987852Y23671285D01*
X53081343Y23979484D01*
X53112911Y24300000D01*
X53081343Y24620516D01*
X52987852Y24928715D01*
X52836031Y25212752D01*
X52631714Y25461714D01*
X52499767Y25570000D01*
X52631714Y25678286D01*
X52836031Y25927248D01*
X52987852Y26211285D01*
X53081343Y26519484D01*
X53112911Y26840000D01*
X53081343Y27160516D01*
X52987852Y27468715D01*
X52836031Y27752752D01*
X52631714Y28001714D01*
X52499767Y28110000D01*
X52631714Y28218286D01*
X52836031Y28467248D01*
X52987852Y28751285D01*
X53081343Y29059484D01*
X53112911Y29380000D01*
X53081343Y29700516D01*
X52987852Y30008715D01*
X52836031Y30292752D01*
X52777345Y30364261D01*
X52824494Y30389463D01*
X52921185Y30468815D01*
X53000537Y30565506D01*
X53059502Y30675820D01*
X53095812Y30795518D01*
X53108072Y30920000D01*
X53108072Y32920000D01*
X53095812Y33044482D01*
X53059502Y33164180D01*
X53000537Y33274494D01*
X52921185Y33371185D01*
X52885734Y33400279D01*
X53915000Y33400279D01*
X53915000Y32979721D01*
X53997047Y32567244D01*
X54157988Y32178698D01*
X54391637Y31829017D01*
X54689017Y31531637D01*
X55038698Y31297988D01*
X55070054Y31285000D01*
X55038698Y31272012D01*
X54689017Y31038363D01*
X54391637Y30740983D01*
X54157988Y30391302D01*
X53997047Y30002756D01*
X53915000Y29590279D01*
X53915000Y29169721D01*
X53997047Y28757244D01*
X54157988Y28368698D01*
X54391637Y28019017D01*
X54689017Y27721637D01*
X55038698Y27487988D01*
X55427244Y27327047D01*
X55839721Y27245000D01*
X56260279Y27245000D01*
X56672756Y27327047D01*
X57061302Y27487988D01*
X57410983Y27721637D01*
X57708363Y28019017D01*
X57942012Y28368698D01*
X58102953Y28757244D01*
X58185000Y29169721D01*
X58185000Y29590279D01*
X58103291Y30001056D01*
X58590000Y30650000D01*
X64134299Y30650000D01*
X64179463Y30565506D01*
X64258815Y30468815D01*
X64355506Y30389463D01*
X64465820Y30330498D01*
X64585518Y30294188D01*
X64710000Y30281928D01*
X67710000Y30281928D01*
X67834482Y30294188D01*
X67954180Y30330498D01*
X68064494Y30389463D01*
X68161185Y30468815D01*
X68240537Y30565506D01*
X68299502Y30675820D01*
X68335812Y30795518D01*
X68348072Y30920000D01*
X68348072Y32920000D01*
X68335812Y33044482D01*
X68299502Y33164180D01*
X68240537Y33274494D01*
X68161185Y33371185D01*
X68064494Y33450537D01*
X67954180Y33509502D01*
X67834482Y33545812D01*
X67710000Y33558072D01*
X67480000Y33558072D01*
X67480000Y39941928D01*
X67710000Y39941928D01*
X67834482Y39954188D01*
X67954180Y39990498D01*
X68064494Y40049463D01*
X68161185Y40128815D01*
X68240537Y40225506D01*
X68299502Y40335820D01*
X68335812Y40455518D01*
X68348072Y40580000D01*
X68348072Y43580000D01*
X68335812Y43704482D01*
X68299502Y43824180D01*
X68240537Y43934494D01*
X68161185Y44031185D01*
X68064494Y44110537D01*
X67954180Y44169502D01*
X67834482Y44205812D01*
X67710000Y44218072D01*
X64710000Y44218072D01*
X64585518Y44205812D01*
X64465820Y44169502D01*
X64355506Y44110537D01*
X64305000Y44069088D01*
X64305000Y52020912D01*
X64355506Y51979463D01*
X64465820Y51920498D01*
X64585518Y51884188D01*
X64710000Y51871928D01*
X67710000Y51871928D01*
X67834482Y51884188D01*
X67954180Y51920498D01*
X68064494Y51979463D01*
X68161185Y52058815D01*
X68240537Y52155506D01*
X68299502Y52265820D01*
X68335812Y52385518D01*
X68348072Y52510000D01*
X68348072Y54510000D01*
X68335812Y54634482D01*
X68299502Y54754180D01*
X68240537Y54864494D01*
X68161185Y54961185D01*
X68064494Y55040537D01*
X67954180Y55099502D01*
X67834482Y55135812D01*
X67710000Y55148072D01*
X64710000Y55148072D01*
X64585518Y55135812D01*
X64465820Y55099502D01*
X64355506Y55040537D01*
X64258815Y54961185D01*
X64179463Y54864494D01*
X64134299Y54780000D01*
X63502372Y54780000D01*
X63439999Y54786143D01*
X63377626Y54780000D01*
X63377620Y54780000D01*
X63216755Y54764156D01*
X63191036Y54761623D01*
X63135318Y54744721D01*
X62951641Y54689003D01*
X62731012Y54571075D01*
X62537630Y54412370D01*
X62497859Y54363909D01*
X62181091Y54047141D01*
X62132630Y54007370D01*
X61973925Y53813987D01*
X61855997Y53593358D01*
X61783377Y53353962D01*
X61765000Y53167379D01*
X61765000Y53167373D01*
X61758857Y53105000D01*
X61765000Y53042627D01*
X61765001Y42547383D01*
X61758857Y42485000D01*
X61783377Y42236037D01*
X61830711Y42080001D01*
X61855998Y41996641D01*
X61973926Y41776012D01*
X62132631Y41582630D01*
X62181087Y41542863D01*
X62497859Y41226091D01*
X62537630Y41177630D01*
X62731012Y41018925D01*
X62951641Y40900997D01*
X63135318Y40845279D01*
X63191036Y40828377D01*
X63216755Y40825844D01*
X63377620Y40810000D01*
X63377626Y40810000D01*
X63439999Y40803857D01*
X63502372Y40810000D01*
X64071928Y40810000D01*
X64071928Y40580000D01*
X64084188Y40455518D01*
X64120498Y40335820D01*
X64179463Y40225506D01*
X64258815Y40128815D01*
X64355506Y40049463D01*
X64465820Y39990498D01*
X64585518Y39954188D01*
X64710000Y39941928D01*
X64940001Y39941928D01*
X64940000Y33558072D01*
X64710000Y33558072D01*
X64585518Y33545812D01*
X64465820Y33509502D01*
X64355506Y33450537D01*
X64258815Y33371185D01*
X64179463Y33274494D01*
X64134299Y33190000D01*
X58185000Y33190000D01*
X58185000Y33400279D01*
X58102953Y33812756D01*
X57942012Y34201302D01*
X57708363Y34550983D01*
X57410983Y34848363D01*
X57061302Y35082012D01*
X56672756Y35242953D01*
X56260279Y35325000D01*
X55839721Y35325000D01*
X55427244Y35242953D01*
X55038698Y35082012D01*
X54689017Y34848363D01*
X54391637Y34550983D01*
X54157988Y34201302D01*
X53997047Y33812756D01*
X53915000Y33400279D01*
X52885734Y33400279D01*
X52824494Y33450537D01*
X52714180Y33509502D01*
X52594482Y33545812D01*
X52470000Y33558072D01*
X52240000Y33558072D01*
X52240000Y34127620D01*
X52246144Y34190000D01*
X52221623Y34438963D01*
X52149003Y34678358D01*
X52149003Y34678359D01*
X52031075Y34898988D01*
X51872370Y35092370D01*
X51823914Y35132137D01*
X51642140Y35313910D01*
X51602370Y35362370D01*
X51408988Y35521075D01*
X51188359Y35639003D01*
X50948963Y35711623D01*
X50762380Y35730000D01*
X50762373Y35730000D01*
X50700000Y35736143D01*
X50637627Y35730000D01*
X43350000Y35730000D01*
X43350000Y39280233D01*
X43446031Y39397248D01*
X43597852Y39681285D01*
X43691343Y39989484D01*
X43715000Y40229678D01*
X43715000Y41390322D01*
X43691343Y41630516D01*
X43597852Y41938715D01*
X43446031Y42222752D01*
X43374429Y42310000D01*
X45521928Y42310000D01*
X45521928Y39310000D01*
X45534188Y39185518D01*
X45570498Y39065820D01*
X45629463Y38955506D01*
X45708815Y38858815D01*
X45805506Y38779463D01*
X45915820Y38720498D01*
X46035518Y38684188D01*
X46160000Y38671928D01*
X48160000Y38671928D01*
X48284482Y38684188D01*
X48404180Y38720498D01*
X48514494Y38779463D01*
X48611185Y38858815D01*
X48690537Y38955506D01*
X48749502Y39065820D01*
X48785812Y39185518D01*
X48798072Y39310000D01*
X48798072Y42310000D01*
X48785812Y42434482D01*
X48749502Y42554180D01*
X48690537Y42664494D01*
X48611185Y42761185D01*
X48514494Y42840537D01*
X48404180Y42899502D01*
X48284482Y42935812D01*
X48160000Y42948072D01*
X46160000Y42948072D01*
X46035518Y42935812D01*
X45915820Y42899502D01*
X45805506Y42840537D01*
X45708815Y42761185D01*
X45629463Y42664494D01*
X45570498Y42554180D01*
X45534188Y42434482D01*
X45521928Y42310000D01*
X43374429Y42310000D01*
X43241714Y42471714D01*
X42992752Y42676031D01*
X42708715Y42827852D01*
X42400516Y42921343D01*
X42080000Y42952911D01*
X41759485Y42921343D01*
X41451286Y42827852D01*
X41167249Y42676031D01*
X40918287Y42471714D01*
X40810001Y42339766D01*
X40701714Y42471714D01*
X40452752Y42676031D01*
X40168715Y42827852D01*
X39860516Y42921343D01*
X39540000Y42952911D01*
X39219485Y42921343D01*
X38911286Y42827852D01*
X38627249Y42676031D01*
X38378287Y42471714D01*
X38270001Y42339766D01*
X38161714Y42471714D01*
X37912752Y42676031D01*
X37628715Y42827852D01*
X37320516Y42921343D01*
X37000000Y42952911D01*
X36679485Y42921343D01*
X36371286Y42827852D01*
X36189712Y42730799D01*
X36352012Y42973698D01*
X36512953Y43362244D01*
X36595000Y43774721D01*
X36595000Y44195279D01*
X36512953Y44607756D01*
X36352012Y44996302D01*
X36166754Y45273561D01*
X36321188Y45273561D01*
X36383561Y45267418D01*
X36445934Y45273561D01*
X36445941Y45273561D01*
X36632524Y45291938D01*
X36871920Y45364558D01*
X37092549Y45482486D01*
X37285931Y45641191D01*
X37325702Y45689652D01*
X58173917Y66537866D01*
X58222370Y66577630D01*
X58381075Y66771012D01*
X58499003Y66991641D01*
X58571623Y67231037D01*
X58590000Y67417620D01*
X58590000Y67417627D01*
X58596143Y67480000D01*
X58590000Y67542373D01*
X58590000Y70840844D01*
X58680983Y70901637D01*
X58978363Y71199017D01*
X59212012Y71548698D01*
X59372953Y71937244D01*
X59455000Y72349721D01*
X59455000Y72770279D01*
X59372953Y73182756D01*
X59212012Y73571302D01*
X58978363Y73920983D01*
X58680983Y74218363D01*
X58590000Y74279156D01*
X58590000Y76110233D01*
X58686031Y76227248D01*
X58837852Y76511285D01*
X58931343Y76819484D01*
X58955000Y77059678D01*
X58955000Y78220322D01*
X58931343Y78460516D01*
X58837852Y78768715D01*
X58686031Y79052752D01*
X58481714Y79301714D01*
X58232752Y79506031D01*
X57948715Y79657852D01*
X57640516Y79751343D01*
X57320000Y79782911D01*
X56999485Y79751343D01*
X56691286Y79657852D01*
X56407249Y79506031D01*
X56158287Y79301714D01*
X55953970Y79052752D01*
X55802148Y78768715D01*
X55708657Y78460516D01*
X55685000Y78220322D01*
X55685000Y77059679D01*
X55708657Y76819485D01*
X55802148Y76511286D01*
X55953969Y76227249D01*
X56050000Y76110234D01*
X56050001Y74279156D01*
X55959017Y74218363D01*
X55661637Y73920983D01*
X55427988Y73571302D01*
X55267047Y73182756D01*
X55185000Y72770279D01*
X55185000Y72349721D01*
X55267047Y71937244D01*
X55427988Y71548698D01*
X55661637Y71199017D01*
X55959017Y70901637D01*
X56050000Y70840844D01*
X56050000Y70376301D01*
X56050001Y70376291D01*
X56050000Y68006051D01*
X35857511Y47813561D01*
X25709611Y47813561D01*
X30233915Y52337864D01*
X30282370Y52377630D01*
X30441075Y52571012D01*
X30559003Y52791641D01*
X30631623Y53031037D01*
X30650000Y53217620D01*
X30650000Y53217626D01*
X30656143Y53279999D01*
X30650000Y53342372D01*
X30650000Y64680234D01*
X30758286Y64548286D01*
X31007248Y64343969D01*
X31291285Y64192148D01*
X31599484Y64098657D01*
X31920000Y64067089D01*
X32240515Y64098657D01*
X32548714Y64192148D01*
X32832751Y64343969D01*
X33081714Y64548286D01*
X33190000Y64680234D01*
X33298286Y64548286D01*
X33547248Y64343969D01*
X33831285Y64192148D01*
X34139484Y64098657D01*
X34460000Y64067089D01*
X34780515Y64098657D01*
X35088714Y64192148D01*
X35372751Y64343969D01*
X35621714Y64548286D01*
X35730000Y64680234D01*
X35838286Y64548286D01*
X36087248Y64343969D01*
X36371285Y64192148D01*
X36679484Y64098657D01*
X37000000Y64067089D01*
X37320515Y64098657D01*
X37628714Y64192148D01*
X37912751Y64343969D01*
X38161714Y64548286D01*
X38270000Y64680234D01*
X38378286Y64548286D01*
X38627248Y64343969D01*
X38911285Y64192148D01*
X39219484Y64098657D01*
X39540000Y64067089D01*
X39860515Y64098657D01*
X40168714Y64192148D01*
X40350288Y64289201D01*
X40187988Y64046302D01*
X40027047Y63657756D01*
X39945000Y63245279D01*
X39945000Y62824721D01*
X40027047Y62412244D01*
X40187988Y62023698D01*
X40421637Y61674017D01*
X40719017Y61376637D01*
X41068698Y61142988D01*
X41457244Y60982047D01*
X41869721Y60900000D01*
X42290279Y60900000D01*
X42702756Y60982047D01*
X43091302Y61142988D01*
X43440983Y61376637D01*
X43738363Y61674017D01*
X43972012Y62023698D01*
X44132953Y62412244D01*
X44215000Y62824721D01*
X44215000Y63245279D01*
X45025000Y63245279D01*
X45025000Y62824721D01*
X45107047Y62412244D01*
X45267988Y62023698D01*
X45501637Y61674017D01*
X45799017Y61376637D01*
X46148698Y61142988D01*
X46537244Y60982047D01*
X46949721Y60900000D01*
X47370279Y60900000D01*
X47782756Y60982047D01*
X48171302Y61142988D01*
X48520983Y61376637D01*
X48818363Y61674017D01*
X49052012Y62023698D01*
X49212953Y62412244D01*
X49295000Y62824721D01*
X49295000Y63245279D01*
X49212953Y63657756D01*
X49052012Y64046302D01*
X48818363Y64395983D01*
X48749162Y64465184D01*
X48749502Y64465820D01*
X48785812Y64585518D01*
X48798072Y64710000D01*
X48798072Y67710000D01*
X48785812Y67834482D01*
X48749502Y67954180D01*
X48690537Y68064494D01*
X48611185Y68161185D01*
X48514494Y68240537D01*
X48404180Y68299502D01*
X48284482Y68335812D01*
X48160000Y68348072D01*
X46160000Y68348072D01*
X46035518Y68335812D01*
X45915820Y68299502D01*
X45805506Y68240537D01*
X45708815Y68161185D01*
X45629463Y68064494D01*
X45570498Y67954180D01*
X45534188Y67834482D01*
X45521928Y67710000D01*
X45521928Y64710000D01*
X45534188Y64585518D01*
X45570498Y64465820D01*
X45570838Y64465184D01*
X45501637Y64395983D01*
X45267988Y64046302D01*
X45107047Y63657756D01*
X45025000Y63245279D01*
X44215000Y63245279D01*
X44132953Y63657756D01*
X43972012Y64046302D01*
X43738363Y64395983D01*
X43440983Y64693363D01*
X43389181Y64727976D01*
X43446031Y64797248D01*
X43597852Y65081285D01*
X43691343Y65389484D01*
X43715000Y65629678D01*
X43715000Y66790322D01*
X43691343Y67030516D01*
X43597852Y67338715D01*
X43446031Y67622752D01*
X43241714Y67871714D01*
X42992752Y68076031D01*
X42919846Y68115000D01*
X43922627Y68115000D01*
X43985000Y68108857D01*
X44047373Y68115000D01*
X44047380Y68115000D01*
X44233963Y68133377D01*
X44473359Y68205997D01*
X44693988Y68323925D01*
X44887370Y68482630D01*
X44927141Y68531091D01*
X46842398Y70446348D01*
X46949721Y70425000D01*
X47370279Y70425000D01*
X47782756Y70507047D01*
X48171302Y70667988D01*
X48520983Y70901637D01*
X48818363Y71199017D01*
X49052012Y71548698D01*
X49212953Y71937244D01*
X49295000Y72349721D01*
X49295000Y72770279D01*
X49212953Y73182756D01*
X49052012Y73571302D01*
X48818363Y73920983D01*
X48520983Y74218363D01*
X48430000Y74279156D01*
X48430000Y76110233D01*
X48526031Y76227248D01*
X48677852Y76511285D01*
X48771343Y76819484D01*
X48795000Y77059678D01*
X48795000Y78220322D01*
X50605000Y78220322D01*
X50605000Y77059679D01*
X50628657Y76819485D01*
X50722148Y76511286D01*
X50873969Y76227249D01*
X51078286Y75978286D01*
X51327248Y75773969D01*
X51611285Y75622148D01*
X51919484Y75528657D01*
X52240000Y75497089D01*
X52560515Y75528657D01*
X52868714Y75622148D01*
X53152751Y75773969D01*
X53401714Y75978286D01*
X53606031Y76227248D01*
X53757852Y76511285D01*
X53851343Y76819484D01*
X53875000Y77059678D01*
X53875000Y78220322D01*
X53851343Y78460516D01*
X53757852Y78768715D01*
X53606031Y79052752D01*
X53510000Y79169767D01*
X53510000Y79311928D01*
X54510000Y79311928D01*
X54634482Y79324188D01*
X54754180Y79360498D01*
X54864494Y79419463D01*
X54961185Y79498815D01*
X55040537Y79595506D01*
X55099502Y79705820D01*
X55135812Y79825518D01*
X55148072Y79950000D01*
X55148072Y81635656D01*
X68135000Y81635656D01*
X68135000Y81264344D01*
X68207439Y80900166D01*
X68349534Y80557118D01*
X68555825Y80248382D01*
X68818382Y79985825D01*
X69127118Y79779534D01*
X69470166Y79637439D01*
X69834344Y79565000D01*
X70205656Y79565000D01*
X70569834Y79637439D01*
X70912882Y79779534D01*
X71221618Y79985825D01*
X71484175Y80248382D01*
X71690466Y80557118D01*
X71832561Y80900166D01*
X71905000Y81264344D01*
X71905000Y81635656D01*
X71832561Y81999834D01*
X71690466Y82342882D01*
X71484175Y82651618D01*
X71221618Y82914175D01*
X70912882Y83120466D01*
X70569834Y83262561D01*
X70205656Y83335000D01*
X69834344Y83335000D01*
X69470166Y83262561D01*
X69127118Y83120466D01*
X68818382Y82914175D01*
X68555825Y82651618D01*
X68349534Y82342882D01*
X68207439Y81999834D01*
X68135000Y81635656D01*
X55148072Y81635656D01*
X55148072Y82950000D01*
X55135812Y83074482D01*
X55099502Y83194180D01*
X55040537Y83304494D01*
X54961185Y83401185D01*
X54864494Y83480537D01*
X54754180Y83539502D01*
X54634482Y83575812D01*
X54510000Y83588072D01*
X52510000Y83588072D01*
X52385518Y83575812D01*
X52265820Y83539502D01*
X52155506Y83480537D01*
X52058815Y83401185D01*
X51979463Y83304494D01*
X51920498Y83194180D01*
X51884188Y83074482D01*
X51871928Y82950000D01*
X51871928Y81607978D01*
X51386086Y81122136D01*
X51337631Y81082370D01*
X51178926Y80888988D01*
X51168605Y80869678D01*
X51060998Y80668359D01*
X50988377Y80428963D01*
X50963857Y80180000D01*
X50970001Y80117618D01*
X50970001Y79169766D01*
X50873970Y79052752D01*
X50722148Y78768715D01*
X50628657Y78460516D01*
X50605000Y78220322D01*
X48795000Y78220322D01*
X48771343Y78460516D01*
X48677852Y78768715D01*
X48526031Y79052752D01*
X48321714Y79301714D01*
X48072752Y79506031D01*
X47788715Y79657852D01*
X47480516Y79751343D01*
X47160000Y79782911D01*
X46839485Y79751343D01*
X46531286Y79657852D01*
X46247249Y79506031D01*
X45998287Y79301714D01*
X45793970Y79052752D01*
X45642148Y78768715D01*
X45548657Y78460516D01*
X45525000Y78220322D01*
X45525000Y77059679D01*
X45548657Y76819485D01*
X45642148Y76511286D01*
X45793969Y76227249D01*
X45890000Y76110234D01*
X45890001Y74279156D01*
X45799017Y74218363D01*
X45501637Y73920983D01*
X45267988Y73571302D01*
X45107047Y73182756D01*
X45025000Y72770279D01*
X45025000Y72349721D01*
X45046348Y72242398D01*
X43458950Y70655000D01*
X38967380Y70655000D01*
X38905000Y70661144D01*
X38842620Y70655000D01*
X38656037Y70636623D01*
X38416641Y70564003D01*
X38196012Y70446075D01*
X38110991Y70376300D01*
X38051083Y70327135D01*
X38051080Y70327132D01*
X38002630Y70287370D01*
X37962868Y70238919D01*
X36146086Y68422136D01*
X36097631Y68382370D01*
X35938926Y68188988D01*
X35820997Y67968359D01*
X35764351Y67781622D01*
X35730001Y67739766D01*
X35730000Y67739767D01*
X35730000Y69493950D01*
X36682398Y70446348D01*
X36789721Y70425000D01*
X37210279Y70425000D01*
X37622756Y70507047D01*
X38011302Y70667988D01*
X38360983Y70901637D01*
X38658363Y71199017D01*
X38892012Y71548698D01*
X39052953Y71937244D01*
X39135000Y72349721D01*
X39135000Y72770279D01*
X39052953Y73182756D01*
X38892012Y73571302D01*
X38658363Y73920983D01*
X38360983Y74218363D01*
X38270000Y74279156D01*
X38270000Y76110233D01*
X38366031Y76227248D01*
X38517852Y76511285D01*
X38611343Y76819484D01*
X38635000Y77059678D01*
X38635000Y78220322D01*
X40445000Y78220322D01*
X40445000Y77059679D01*
X40468657Y76819485D01*
X40562148Y76511286D01*
X40713969Y76227249D01*
X40918286Y75978286D01*
X41167248Y75773969D01*
X41451285Y75622148D01*
X41759484Y75528657D01*
X42080000Y75497089D01*
X42400515Y75528657D01*
X42708714Y75622148D01*
X42992751Y75773969D01*
X43241714Y75978286D01*
X43446031Y76227248D01*
X43597852Y76511285D01*
X43691343Y76819484D01*
X43715000Y77059678D01*
X43715000Y78220322D01*
X43691343Y78460516D01*
X43597852Y78768715D01*
X43446031Y79052752D01*
X43350000Y79169767D01*
X43350000Y79307089D01*
X43670515Y79338657D01*
X43978714Y79432148D01*
X44262751Y79583969D01*
X44511714Y79788286D01*
X44716031Y80037248D01*
X44867852Y80321285D01*
X44961343Y80629484D01*
X44985000Y80869678D01*
X44985000Y82030322D01*
X44961343Y82270516D01*
X44867852Y82578715D01*
X44716031Y82862752D01*
X44511714Y83111714D01*
X44262752Y83316031D01*
X43978715Y83467852D01*
X43670516Y83561343D01*
X43350000Y83592911D01*
X43029485Y83561343D01*
X42721286Y83467852D01*
X42437249Y83316031D01*
X42188287Y83111714D01*
X41983970Y82862752D01*
X41832148Y82578715D01*
X41738657Y82270516D01*
X41715000Y82030322D01*
X41715000Y81611050D01*
X41226086Y81122136D01*
X41177631Y81082370D01*
X41018926Y80888988D01*
X41008605Y80869678D01*
X40900998Y80668359D01*
X40828377Y80428963D01*
X40803857Y80180000D01*
X40810001Y80117618D01*
X40810001Y79169766D01*
X40713970Y79052752D01*
X40562148Y78768715D01*
X40468657Y78460516D01*
X40445000Y78220322D01*
X38635000Y78220322D01*
X38611343Y78460516D01*
X38517852Y78768715D01*
X38366031Y79052752D01*
X38161714Y79301714D01*
X37912752Y79506031D01*
X37628715Y79657852D01*
X37320516Y79751343D01*
X37000000Y79782911D01*
X36679485Y79751343D01*
X36371286Y79657852D01*
X36087249Y79506031D01*
X35838287Y79301714D01*
X35633970Y79052752D01*
X35482148Y78768715D01*
X35388657Y78460516D01*
X35365000Y78220322D01*
X35365000Y77059679D01*
X35388657Y76819485D01*
X35482148Y76511286D01*
X35633969Y76227249D01*
X35730000Y76110234D01*
X35730001Y74279156D01*
X35639017Y74218363D01*
X35341637Y73920983D01*
X35107988Y73571302D01*
X34947047Y73182756D01*
X34865000Y72770279D01*
X34865000Y72349721D01*
X34886348Y72242398D01*
X33606086Y70962136D01*
X33557631Y70922370D01*
X33398926Y70728988D01*
X33376827Y70687643D01*
X33280998Y70508359D01*
X33208377Y70268963D01*
X33183857Y70020000D01*
X33190001Y69957617D01*
X33190000Y67739766D01*
X33155649Y67781624D01*
X33099003Y67968359D01*
X33035359Y68087429D01*
X32981075Y68188988D01*
X32870334Y68323926D01*
X32862135Y68333917D01*
X32862132Y68333920D01*
X32822370Y68382370D01*
X32773918Y68422134D01*
X28953652Y72242398D01*
X28975000Y72349721D01*
X28975000Y72770279D01*
X28892953Y73182756D01*
X28732012Y73571302D01*
X28498363Y73920983D01*
X28200983Y74218363D01*
X28110000Y74279156D01*
X28110000Y76110233D01*
X28206031Y76227248D01*
X28357852Y76511285D01*
X28451343Y76819484D01*
X28475000Y77059678D01*
X28475000Y78220322D01*
X30285000Y78220322D01*
X30285000Y77059679D01*
X30308657Y76819485D01*
X30402148Y76511286D01*
X30553969Y76227249D01*
X30758286Y75978286D01*
X31007248Y75773969D01*
X31291285Y75622148D01*
X31599484Y75528657D01*
X31920000Y75497089D01*
X32240515Y75528657D01*
X32548714Y75622148D01*
X32832751Y75773969D01*
X33081714Y75978286D01*
X33286031Y76227248D01*
X33437852Y76511285D01*
X33531343Y76819484D01*
X33555000Y77059678D01*
X33555000Y78220322D01*
X33531343Y78460516D01*
X33437852Y78768715D01*
X33286031Y79052752D01*
X33190000Y79169767D01*
X33190000Y79307089D01*
X33510515Y79338657D01*
X33818714Y79432148D01*
X34102751Y79583969D01*
X34351714Y79788286D01*
X34556031Y80037248D01*
X34707852Y80321285D01*
X34801343Y80629484D01*
X34825000Y80869678D01*
X34825000Y82030322D01*
X34801343Y82270516D01*
X34707852Y82578715D01*
X34556031Y82862752D01*
X34351714Y83111714D01*
X34102752Y83316031D01*
X33818715Y83467852D01*
X33510516Y83561343D01*
X33190000Y83592911D01*
X32869485Y83561343D01*
X32561286Y83467852D01*
X32277249Y83316031D01*
X32028287Y83111714D01*
X31823970Y82862752D01*
X31672148Y82578715D01*
X31578657Y82270516D01*
X31555000Y82030322D01*
X31555000Y81611050D01*
X31066086Y81122136D01*
X31017631Y81082370D01*
X30858926Y80888988D01*
X30848605Y80869678D01*
X30740998Y80668359D01*
X30668377Y80428963D01*
X30643857Y80180000D01*
X30650001Y80117618D01*
X30650001Y79169766D01*
X30553970Y79052752D01*
X30402148Y78768715D01*
X30308657Y78460516D01*
X30285000Y78220322D01*
X28475000Y78220322D01*
X28451343Y78460516D01*
X28357852Y78768715D01*
X28206031Y79052752D01*
X28001714Y79301714D01*
X27752752Y79506031D01*
X27468715Y79657852D01*
X27160516Y79751343D01*
X26840000Y79782911D01*
X26519485Y79751343D01*
X26211286Y79657852D01*
X25927249Y79506031D01*
X25678287Y79301714D01*
X25473970Y79052752D01*
X25322148Y78768715D01*
X25228657Y78460516D01*
X25205000Y78220322D01*
X25205000Y77059679D01*
X25228657Y76819485D01*
X25322148Y76511286D01*
X25473969Y76227249D01*
X25570000Y76110234D01*
X25570001Y74279156D01*
X25479017Y74218363D01*
X25181637Y73920983D01*
X24947988Y73571302D01*
X24787047Y73182756D01*
X24705000Y72770279D01*
X24705000Y72349721D01*
X24787047Y71937244D01*
X24947988Y71548698D01*
X25181637Y71199017D01*
X25479017Y70901637D01*
X25828698Y70667988D01*
X26217244Y70507047D01*
X26629721Y70425000D01*
X27050279Y70425000D01*
X27157602Y70446348D01*
X29262601Y68341348D01*
X29059485Y68321343D01*
X28751286Y68227852D01*
X28467249Y68076031D01*
X28218287Y67871714D01*
X28110001Y67739766D01*
X28001714Y67871714D01*
X27752752Y68076031D01*
X27468715Y68227852D01*
X27160516Y68321343D01*
X26840000Y68352911D01*
X26519485Y68321343D01*
X26211286Y68227852D01*
X25927249Y68076031D01*
X25678287Y67871714D01*
X25570001Y67739766D01*
X25461714Y67871714D01*
X25212752Y68076031D01*
X24928715Y68227852D01*
X24620516Y68321343D01*
X24300000Y68352911D01*
X23979485Y68321343D01*
X23671286Y68227852D01*
X23387249Y68076031D01*
X23138287Y67871714D01*
X23030001Y67739766D01*
X22995648Y67781624D01*
X22968320Y67871714D01*
X22939003Y67968359D01*
X22821075Y68188988D01*
X22662370Y68382370D01*
X22613914Y68422137D01*
X16680000Y74356050D01*
X16680000Y78220322D01*
X20125000Y78220322D01*
X20125000Y77059679D01*
X20148657Y76819485D01*
X20242148Y76511286D01*
X20393969Y76227249D01*
X20598286Y75978286D01*
X20847248Y75773969D01*
X21131285Y75622148D01*
X21439484Y75528657D01*
X21760000Y75497089D01*
X22080515Y75528657D01*
X22388714Y75622148D01*
X22672751Y75773969D01*
X22921714Y75978286D01*
X23126031Y76227248D01*
X23277852Y76511285D01*
X23371343Y76819484D01*
X23395000Y77059678D01*
X23395000Y78220322D01*
X23371343Y78460516D01*
X23277852Y78768715D01*
X23126031Y79052752D01*
X23030000Y79169767D01*
X23030000Y79311928D01*
X24030000Y79311928D01*
X24154482Y79324188D01*
X24274180Y79360498D01*
X24384494Y79419463D01*
X24481185Y79498815D01*
X24560537Y79595506D01*
X24619502Y79705820D01*
X24655812Y79825518D01*
X24668072Y79950000D01*
X24668072Y82950000D01*
X24655812Y83074482D01*
X24619502Y83194180D01*
X24560537Y83304494D01*
X24481185Y83401185D01*
X24384494Y83480537D01*
X24274180Y83539502D01*
X24154482Y83575812D01*
X24030000Y83588072D01*
X22030000Y83588072D01*
X21905518Y83575812D01*
X21785820Y83539502D01*
X21675506Y83480537D01*
X21578815Y83401185D01*
X21499463Y83304494D01*
X21440498Y83194180D01*
X21404188Y83074482D01*
X21391928Y82950000D01*
X21391928Y81607978D01*
X20906086Y81122136D01*
X20857631Y81082370D01*
X20698926Y80888988D01*
X20688605Y80869678D01*
X20580998Y80668359D01*
X20508377Y80428963D01*
X20483857Y80180000D01*
X20490001Y80117618D01*
X20490001Y79169766D01*
X20393970Y79052752D01*
X20242148Y78768715D01*
X20148657Y78460516D01*
X20125000Y78220322D01*
X16680000Y78220322D01*
X16680000Y79374299D01*
X16764494Y79419463D01*
X16861185Y79498815D01*
X16940537Y79595506D01*
X16999502Y79705820D01*
X17035812Y79825518D01*
X17048072Y79950000D01*
X17048072Y82950000D01*
X17035812Y83074482D01*
X16999502Y83194180D01*
X16940537Y83304494D01*
X16861185Y83401185D01*
X16764494Y83480537D01*
X16654180Y83539502D01*
X16534482Y83575812D01*
X16410000Y83588072D01*
X14410000Y83588072D01*
X14285518Y83575812D01*
X14165820Y83539502D01*
X14055506Y83480537D01*
X13958815Y83401185D01*
X13879463Y83304494D01*
X13820498Y83194180D01*
X13784188Y83074482D01*
X13771928Y82950000D01*
X13771928Y79950000D01*
X13784188Y79825518D01*
X13820498Y79705820D01*
X13879463Y79595506D01*
X13958815Y79498815D01*
X14055506Y79419463D01*
X14140001Y79374299D01*
X14140000Y73892373D01*
X14133857Y73830000D01*
X14140000Y73767627D01*
X14140000Y73767621D01*
X14158377Y73581038D01*
X14230997Y73341642D01*
X14348925Y73121013D01*
X14507630Y72927630D01*
X14556091Y72887859D01*
X19102601Y68341348D01*
X18899485Y68321343D01*
X18591286Y68227852D01*
X18307249Y68076031D01*
X18058287Y67871714D01*
X17950001Y67739766D01*
X17841714Y67871714D01*
X17592752Y68076031D01*
X17308715Y68227852D01*
X17000516Y68321343D01*
X16680000Y68352911D01*
X16359485Y68321343D01*
X16051286Y68227852D01*
X15767249Y68076031D01*
X15518287Y67871714D01*
X15410001Y67739766D01*
X15410000Y67739767D01*
X15410000Y69957628D01*
X15416143Y70020001D01*
X15410000Y70082374D01*
X15410000Y70082380D01*
X15391623Y70268963D01*
X15386040Y70287370D01*
X15359062Y70376301D01*
X15319003Y70508359D01*
X15201075Y70728988D01*
X15042370Y70922370D01*
X14993914Y70962137D01*
X13738072Y72217978D01*
X13738072Y73560000D01*
X13725812Y73684482D01*
X13689502Y73804180D01*
X13630537Y73914494D01*
X13551185Y74011185D01*
X13454494Y74090537D01*
X13344180Y74149502D01*
X13224482Y74185812D01*
X13100000Y74198072D01*
X10100000Y74198072D01*
X9975518Y74185812D01*
X9855820Y74149502D01*
X9745506Y74090537D01*
X9648815Y74011185D01*
X9569463Y73914494D01*
X9510498Y73804180D01*
X9474188Y73684482D01*
X9461928Y73560000D01*
X9461928Y71560000D01*
X9474188Y71435518D01*
X9510498Y71315820D01*
X9569463Y71205506D01*
X9648815Y71108815D01*
X9745506Y71029463D01*
X9855820Y70970498D01*
X9975518Y70934188D01*
X10100000Y70921928D01*
X11442022Y70921928D01*
X12870001Y69493948D01*
X12870000Y67739766D01*
X12761714Y67871714D01*
X12512752Y68076031D01*
X12228715Y68227852D01*
X11920516Y68321343D01*
X11600000Y68352911D01*
X11279485Y68321343D01*
X10971286Y68227852D01*
X10687249Y68076031D01*
X10438287Y67871714D01*
X10233970Y67622752D01*
X10082148Y67338715D01*
X9988657Y67030516D01*
X9965000Y66790322D01*
X9965000Y65629679D01*
X9988657Y65389485D01*
X10082148Y65081286D01*
X10233969Y64797249D01*
X10330000Y64680233D01*
X10330000Y63377621D01*
X10330001Y63377611D01*
X10330000Y54085135D01*
X10323857Y54022762D01*
X10330000Y53960389D01*
X10330000Y53960383D01*
X10338151Y53877630D01*
X10348377Y53773799D01*
X10352878Y53758963D01*
X10420997Y53534404D01*
X10538925Y53313775D01*
X10697630Y53120392D01*
X10746091Y53080621D01*
X15708457Y48118254D01*
X15748224Y48069798D01*
X15941606Y47911093D01*
X16112582Y47819705D01*
X16162235Y47793165D01*
X16401631Y47720545D01*
X16650594Y47696024D01*
X16712974Y47702168D01*
X18445894Y47702168D01*
X18378657Y47480516D01*
X18347089Y47160000D01*
X18378657Y46839484D01*
X18472148Y46531285D01*
X18623969Y46247248D01*
X18682655Y46175739D01*
X18635506Y46150537D01*
X18538815Y46071185D01*
X18459463Y45974494D01*
X18400498Y45864180D01*
X18364188Y45744482D01*
X18351928Y45620000D01*
X18351928Y43620000D01*
X18364188Y43495518D01*
X18400498Y43375820D01*
X18459463Y43265506D01*
X18538815Y43168815D01*
X18635506Y43089463D01*
X18745820Y43030498D01*
X18865518Y42994188D01*
X18990000Y42981928D01*
X21990000Y42981928D01*
X22114482Y42994188D01*
X22234180Y43030498D01*
X22344494Y43089463D01*
X22441185Y43168815D01*
X22520537Y43265506D01*
X22579502Y43375820D01*
X22615812Y43495518D01*
X22628072Y43620000D01*
X22628072Y45620000D01*
X22615812Y45744482D01*
X22579502Y45864180D01*
X22565701Y45890000D01*
X23023857Y45890000D01*
X23030001Y45827617D01*
X23030000Y42339766D01*
X22921714Y42471714D01*
X22672752Y42676031D01*
X22388715Y42827852D01*
X22080516Y42921343D01*
X21760000Y42952911D01*
X21439485Y42921343D01*
X21131286Y42827852D01*
X20847249Y42676031D01*
X20598287Y42471714D01*
X20490001Y42339766D01*
X20381714Y42471714D01*
X20132752Y42676031D01*
X19848715Y42827852D01*
X19540516Y42921343D01*
X19220000Y42952911D01*
X18899485Y42921343D01*
X18591286Y42827852D01*
X18307249Y42676031D01*
X18058287Y42471714D01*
X17950001Y42339766D01*
X17841714Y42471714D01*
X17592752Y42676031D01*
X17308715Y42827852D01*
X17000516Y42921343D01*
X16680000Y42952911D01*
X16359485Y42921343D01*
X16051286Y42827852D01*
X15767249Y42676031D01*
X15518287Y42471714D01*
X15410001Y42339766D01*
X15301714Y42471714D01*
X15052752Y42676031D01*
X14768715Y42827852D01*
X14460516Y42921343D01*
X14140000Y42952911D01*
X13819485Y42921343D01*
X13511286Y42827852D01*
X13227249Y42676031D01*
X12978287Y42471714D01*
X12870001Y42339766D01*
X12761714Y42471714D01*
X12512752Y42676031D01*
X12228715Y42827852D01*
X11920516Y42921343D01*
X11600000Y42952911D01*
X11279485Y42921343D01*
X10971286Y42827852D01*
X10687249Y42676031D01*
X10438287Y42471714D01*
X10233970Y42222752D01*
X10082148Y41938715D01*
X9988657Y41630516D01*
X9965000Y41390322D01*
X9965000Y40229679D01*
X9988657Y39989485D01*
X10082148Y39681286D01*
X10233969Y39397249D01*
X10438286Y39148286D01*
X10687248Y38943969D01*
X10971285Y38792148D01*
X11279484Y38698657D01*
X11600000Y38667089D01*
X11920515Y38698657D01*
X12228714Y38792148D01*
X12512751Y38943969D01*
X12761714Y39148286D01*
X12870000Y39280234D01*
X12978286Y39148286D01*
X13227248Y38943969D01*
X13511285Y38792148D01*
X13819484Y38698657D01*
X14140000Y38667089D01*
X14460515Y38698657D01*
X14768714Y38792148D01*
X15052751Y38943969D01*
X15301714Y39148286D01*
X15410000Y39280234D01*
X15518286Y39148286D01*
X15767248Y38943969D01*
X16051285Y38792148D01*
X16359484Y38698657D01*
X16680000Y38667089D01*
X17000515Y38698657D01*
X17308714Y38792148D01*
X17592751Y38943969D01*
X17841714Y39148286D01*
X17950000Y39280234D01*
X18058286Y39148286D01*
X18307248Y38943969D01*
X18591285Y38792148D01*
X18899484Y38698657D01*
X19220000Y38667089D01*
X19540515Y38698657D01*
X19848714Y38792148D01*
X20132751Y38943969D01*
X20381714Y39148286D01*
X20490000Y39280234D01*
X20598286Y39148286D01*
X20847248Y38943969D01*
X21131285Y38792148D01*
X21439484Y38698657D01*
X21760000Y38667089D01*
X22080515Y38698657D01*
X22388714Y38792148D01*
X22672751Y38943969D01*
X22921714Y39148286D01*
X23030000Y39280234D01*
X23138286Y39148286D01*
X23387248Y38943969D01*
X23671285Y38792148D01*
X23979484Y38698657D01*
X24300000Y38667089D01*
X24620515Y38698657D01*
X24928714Y38792148D01*
X25212751Y38943969D01*
X25461714Y39148286D01*
X25570000Y39280234D01*
X25678286Y39148286D01*
X25927248Y38943969D01*
X26211285Y38792148D01*
X26519484Y38698657D01*
X26840000Y38667089D01*
X27160515Y38698657D01*
X27468714Y38792148D01*
X27752751Y38943969D01*
X28001714Y39148286D01*
X28110000Y39280234D01*
X28218286Y39148286D01*
X28467248Y38943969D01*
X28751285Y38792148D01*
X29059484Y38698657D01*
X29380000Y38667089D01*
X29700515Y38698657D01*
X30008714Y38792148D01*
X30112310Y38847521D01*
X30027988Y38721324D01*
X29867047Y38332778D01*
X29785000Y37920301D01*
X29785000Y37499743D01*
X29867047Y37087266D01*
X30027988Y36698720D01*
X30250972Y36365000D01*
X9771890Y36365000D01*
X9724078Y36370812D01*
X9647126Y36365000D01*
X9632620Y36365000D01*
X9584909Y36360301D01*
X9474621Y36351971D01*
X9460561Y36348054D01*
X9446037Y36346623D01*
X9340194Y36314516D01*
X9233633Y36284825D01*
X9220607Y36278240D01*
X9206641Y36274003D01*
X9109062Y36221846D01*
X9010376Y36171954D01*
X8998892Y36162960D01*
X8986012Y36156075D01*
X8900462Y36085866D01*
X8813427Y36017697D01*
X8803917Y36006633D01*
X8792630Y35997370D01*
X8722432Y35911834D01*
X8691215Y35875516D01*
X8682893Y35863655D01*
X8633925Y35803988D01*
X8611215Y35761500D01*
X8047888Y34958648D01*
X7998926Y34898988D01*
X7946784Y34801436D01*
X7892432Y34705098D01*
X7887878Y34691230D01*
X7880998Y34678359D01*
X7848891Y34572517D01*
X7814376Y34467419D01*
X7812615Y34452929D01*
X7808378Y34438963D01*
X7797537Y34328895D01*
X7784188Y34219079D01*
X7790001Y34142115D01*
X7790001Y33558072D01*
X7560000Y33558072D01*
X7435518Y33545812D01*
X7315820Y33509502D01*
X7266307Y33483037D01*
X7170981Y33578363D01*
X6821300Y33812012D01*
X6432754Y33972953D01*
X6020277Y34055000D01*
X5599719Y34055000D01*
X5187242Y33972953D01*
X4798696Y33812012D01*
X4449015Y33578363D01*
X4151635Y33280983D01*
X3917986Y32931302D01*
X3757045Y32542756D01*
X3674998Y32130279D01*
X830000Y32130279D01*
X830000Y81635656D01*
X2095000Y81635656D01*
X2095000Y81264344D01*
X2167439Y80900166D01*
X2309534Y80557118D01*
X2515825Y80248382D01*
X2778382Y79985825D01*
X3087118Y79779534D01*
X3430166Y79637439D01*
X3794344Y79565000D01*
X4165656Y79565000D01*
X4529834Y79637439D01*
X4872882Y79779534D01*
X5181618Y79985825D01*
X5444175Y80248382D01*
X5650466Y80557118D01*
X5792561Y80900166D01*
X5865000Y81264344D01*
X5865000Y81635656D01*
X5792561Y81999834D01*
X5650466Y82342882D01*
X5444175Y82651618D01*
X5181618Y82914175D01*
X4872882Y83120466D01*
X4529834Y83262561D01*
X4165656Y83335000D01*
X3794344Y83335000D01*
X3430166Y83262561D01*
X3087118Y83120466D01*
X2778382Y82914175D01*
X2515825Y82651618D01*
X2309534Y82342882D01*
X2167439Y81999834D01*
X2095000Y81635656D01*
X830000Y81635656D01*
X830000Y84600000D01*
X73170001Y84600000D01*
X73170000Y830000D01*
G36*
X41319463Y30565506D02*
G01*
X41398815Y30468815D01*
X41495506Y30389463D01*
X41605820Y30330498D01*
X41725518Y30294188D01*
X41850000Y30281928D01*
X44818715Y30281928D01*
X44839006Y30261637D01*
X45188687Y30027988D01*
X45577233Y29867047D01*
X45989710Y29785000D01*
X46410268Y29785000D01*
X46822745Y29867047D01*
X46939257Y29915308D01*
X46296892Y29272942D01*
X46248437Y29233176D01*
X46089732Y29039794D01*
X45971804Y28819165D01*
X45899183Y28579769D01*
X45874663Y28330806D01*
X45880807Y28268423D01*
X45880806Y20381051D01*
X45361101Y19861346D01*
X45216031Y20132752D01*
X45011714Y20381714D01*
X44879767Y20490000D01*
X45011714Y20598286D01*
X45216031Y20847248D01*
X45367852Y21131285D01*
X45461343Y21439484D01*
X45492911Y21760000D01*
X45461343Y22080516D01*
X45367852Y22388715D01*
X45216031Y22672752D01*
X45011714Y22921714D01*
X44879767Y23030000D01*
X45011714Y23138286D01*
X45216031Y23387248D01*
X45367852Y23671285D01*
X45461343Y23979484D01*
X45492911Y24300000D01*
X45461343Y24620516D01*
X45367852Y24928715D01*
X45216031Y25212752D01*
X45011714Y25461714D01*
X44879767Y25570000D01*
X45011714Y25678286D01*
X45216031Y25927248D01*
X45367852Y26211285D01*
X45461343Y26519484D01*
X45492911Y26840000D01*
X45461343Y27160516D01*
X45367852Y27468715D01*
X45216031Y27752752D01*
X45011714Y28001714D01*
X44762752Y28206031D01*
X44478715Y28357852D01*
X44170516Y28451343D01*
X43930322Y28475000D01*
X42769678Y28475000D01*
X42529484Y28451343D01*
X42221285Y28357852D01*
X41937248Y28206031D01*
X41688286Y28001714D01*
X41483969Y27752752D01*
X41332148Y27468715D01*
X41238657Y27160516D01*
X41237564Y27149421D01*
X32654558Y18566414D01*
X32667852Y18591285D01*
X32761343Y18899484D01*
X32792911Y19220000D01*
X32761343Y19540516D01*
X32667852Y19848715D01*
X32516031Y20132752D01*
X32311714Y20381714D01*
X32179767Y20490000D01*
X32311714Y20598286D01*
X32516031Y20847248D01*
X32667852Y21131285D01*
X32761343Y21439484D01*
X32792911Y21760000D01*
X32761343Y22080516D01*
X32667852Y22388715D01*
X32516031Y22672752D01*
X32311714Y22921714D01*
X32179767Y23030000D01*
X32311714Y23138286D01*
X32516031Y23387248D01*
X32667852Y23671285D01*
X32761343Y23979484D01*
X32792911Y24300000D01*
X32761343Y24620516D01*
X32667852Y24928715D01*
X32516031Y25212752D01*
X32311714Y25461714D01*
X32179767Y25570000D01*
X32311714Y25678286D01*
X32516031Y25927248D01*
X32667852Y26211285D01*
X32761343Y26519484D01*
X32792911Y26840000D01*
X32761343Y27160516D01*
X32667852Y27468715D01*
X32516031Y27752752D01*
X32311714Y28001714D01*
X32179767Y28110000D01*
X32311714Y28218286D01*
X32516031Y28467248D01*
X32522305Y28478986D01*
X32567988Y28368698D01*
X32801637Y28019017D01*
X33099017Y27721637D01*
X33448698Y27487988D01*
X33837244Y27327047D01*
X34249721Y27245000D01*
X34670279Y27245000D01*
X35082756Y27327047D01*
X35471302Y27487988D01*
X35820983Y27721637D01*
X36118363Y28019017D01*
X36352012Y28368698D01*
X36512953Y28757244D01*
X36595000Y29169721D01*
X36595000Y29590279D01*
X36573652Y29697601D01*
X36988919Y30112867D01*
X37037371Y30152631D01*
X37077134Y30201082D01*
X37307135Y30431083D01*
X37307144Y30431093D01*
X37526050Y30650000D01*
X41274299Y30650000D01*
X41319463Y30565506D01*
G37*
X41319463Y30565506D02*
X41398815Y30468815D01*
X41495506Y30389463D01*
X41605820Y30330498D01*
X41725518Y30294188D01*
X41850000Y30281928D01*
X44818715Y30281928D01*
X44839006Y30261637D01*
X45188687Y30027988D01*
X45577233Y29867047D01*
X45989710Y29785000D01*
X46410268Y29785000D01*
X46822745Y29867047D01*
X46939257Y29915308D01*
X46296892Y29272942D01*
X46248437Y29233176D01*
X46089732Y29039794D01*
X45971804Y28819165D01*
X45899183Y28579769D01*
X45874663Y28330806D01*
X45880807Y28268423D01*
X45880806Y20381051D01*
X45361101Y19861346D01*
X45216031Y20132752D01*
X45011714Y20381714D01*
X44879767Y20490000D01*
X45011714Y20598286D01*
X45216031Y20847248D01*
X45367852Y21131285D01*
X45461343Y21439484D01*
X45492911Y21760000D01*
X45461343Y22080516D01*
X45367852Y22388715D01*
X45216031Y22672752D01*
X45011714Y22921714D01*
X44879767Y23030000D01*
X45011714Y23138286D01*
X45216031Y23387248D01*
X45367852Y23671285D01*
X45461343Y23979484D01*
X45492911Y24300000D01*
X45461343Y24620516D01*
X45367852Y24928715D01*
X45216031Y25212752D01*
X45011714Y25461714D01*
X44879767Y25570000D01*
X45011714Y25678286D01*
X45216031Y25927248D01*
X45367852Y26211285D01*
X45461343Y26519484D01*
X45492911Y26840000D01*
X45461343Y27160516D01*
X45367852Y27468715D01*
X45216031Y27752752D01*
X45011714Y28001714D01*
X44762752Y28206031D01*
X44478715Y28357852D01*
X44170516Y28451343D01*
X43930322Y28475000D01*
X42769678Y28475000D01*
X42529484Y28451343D01*
X42221285Y28357852D01*
X41937248Y28206031D01*
X41688286Y28001714D01*
X41483969Y27752752D01*
X41332148Y27468715D01*
X41238657Y27160516D01*
X41237564Y27149421D01*
X32654558Y18566414D01*
X32667852Y18591285D01*
X32761343Y18899484D01*
X32792911Y19220000D01*
X32761343Y19540516D01*
X32667852Y19848715D01*
X32516031Y20132752D01*
X32311714Y20381714D01*
X32179767Y20490000D01*
X32311714Y20598286D01*
X32516031Y20847248D01*
X32667852Y21131285D01*
X32761343Y21439484D01*
X32792911Y21760000D01*
X32761343Y22080516D01*
X32667852Y22388715D01*
X32516031Y22672752D01*
X32311714Y22921714D01*
X32179767Y23030000D01*
X32311714Y23138286D01*
X32516031Y23387248D01*
X32667852Y23671285D01*
X32761343Y23979484D01*
X32792911Y24300000D01*
X32761343Y24620516D01*
X32667852Y24928715D01*
X32516031Y25212752D01*
X32311714Y25461714D01*
X32179767Y25570000D01*
X32311714Y25678286D01*
X32516031Y25927248D01*
X32667852Y26211285D01*
X32761343Y26519484D01*
X32792911Y26840000D01*
X32761343Y27160516D01*
X32667852Y27468715D01*
X32516031Y27752752D01*
X32311714Y28001714D01*
X32179767Y28110000D01*
X32311714Y28218286D01*
X32516031Y28467248D01*
X32522305Y28478986D01*
X32567988Y28368698D01*
X32801637Y28019017D01*
X33099017Y27721637D01*
X33448698Y27487988D01*
X33837244Y27327047D01*
X34249721Y27245000D01*
X34670279Y27245000D01*
X35082756Y27327047D01*
X35471302Y27487988D01*
X35820983Y27721637D01*
X36118363Y28019017D01*
X36352012Y28368698D01*
X36512953Y28757244D01*
X36595000Y29169721D01*
X36595000Y29590279D01*
X36573652Y29697601D01*
X36988919Y30112867D01*
X37037371Y30152631D01*
X37077134Y30201082D01*
X37307135Y30431083D01*
X37307144Y30431093D01*
X37526050Y30650000D01*
X41274299Y30650000D01*
X41319463Y30565506D01*
G36*
X29380001Y33558072D02*
G01*
X29150000Y33558072D01*
X29025518Y33545812D01*
X28905820Y33509502D01*
X28795506Y33450537D01*
X28698815Y33371185D01*
X28619463Y33274494D01*
X28560498Y33164180D01*
X28524188Y33044482D01*
X28511928Y32920000D01*
X28511928Y30920000D01*
X28524188Y30795518D01*
X28560498Y30675820D01*
X28574299Y30650000D01*
X27537372Y30650000D01*
X27474999Y30656143D01*
X27412626Y30650000D01*
X27412620Y30650000D01*
X27251755Y30634156D01*
X27226036Y30631623D01*
X27153416Y30609594D01*
X26986641Y30559003D01*
X26766012Y30441075D01*
X26572630Y30282370D01*
X26532865Y30233916D01*
X25351086Y29052136D01*
X25302631Y29012370D01*
X25143926Y28818988D01*
X25104921Y28746014D01*
X25025998Y28598359D01*
X24953377Y28358963D01*
X24928857Y28110000D01*
X24935001Y28047617D01*
X24935000Y20381051D01*
X23891348Y19337399D01*
X23871343Y19540516D01*
X23777852Y19848715D01*
X23626031Y20132752D01*
X23421714Y20381714D01*
X23289767Y20490000D01*
X23421714Y20598286D01*
X23626031Y20847248D01*
X23777852Y21131285D01*
X23871343Y21439484D01*
X23902911Y21760000D01*
X23871343Y22080516D01*
X23777852Y22388715D01*
X23626031Y22672752D01*
X23421714Y22921714D01*
X23289767Y23030000D01*
X23421714Y23138286D01*
X23626031Y23387248D01*
X23777852Y23671285D01*
X23871343Y23979484D01*
X23902911Y24300000D01*
X23871343Y24620516D01*
X23777852Y24928715D01*
X23626031Y25212752D01*
X23421714Y25461714D01*
X23289767Y25570000D01*
X23421714Y25678286D01*
X23626031Y25927248D01*
X23777852Y26211285D01*
X23871343Y26519484D01*
X23902911Y26840000D01*
X23871343Y27160516D01*
X23777852Y27468715D01*
X23626031Y27752752D01*
X23421714Y28001714D01*
X23172752Y28206031D01*
X22888715Y28357852D01*
X22580516Y28451343D01*
X22340322Y28475000D01*
X21179678Y28475000D01*
X20939484Y28451343D01*
X20631285Y28357852D01*
X20347248Y28206031D01*
X20188376Y28075648D01*
X20001641Y28019003D01*
X19781012Y27901075D01*
X19587630Y27742370D01*
X19547863Y27693914D01*
X11191348Y19337398D01*
X11171343Y19540516D01*
X11077852Y19848715D01*
X10926031Y20132752D01*
X10721714Y20381714D01*
X10589767Y20490000D01*
X10721714Y20598286D01*
X10926031Y20847248D01*
X11077852Y21131285D01*
X11171343Y21439484D01*
X11202911Y21760000D01*
X11171343Y22080516D01*
X11077852Y22388715D01*
X10926031Y22672752D01*
X10721714Y22921714D01*
X10589767Y23030000D01*
X10721714Y23138286D01*
X10926031Y23387248D01*
X11077852Y23671285D01*
X11171343Y23979484D01*
X11202911Y24300000D01*
X11171343Y24620516D01*
X11077852Y24928715D01*
X10926031Y25212752D01*
X10721714Y25461714D01*
X10589767Y25570000D01*
X10721714Y25678286D01*
X10926031Y25927248D01*
X11077852Y26211285D01*
X11171343Y26519484D01*
X11202911Y26840000D01*
X11171343Y27160516D01*
X11077852Y27468715D01*
X10926031Y27752752D01*
X10721714Y28001714D01*
X10589767Y28110000D01*
X10721714Y28218286D01*
X10926031Y28467248D01*
X10932305Y28478986D01*
X10977988Y28368698D01*
X11211637Y28019017D01*
X11509017Y27721637D01*
X11858698Y27487988D01*
X12247244Y27327047D01*
X12659721Y27245000D01*
X13080279Y27245000D01*
X13492756Y27327047D01*
X13881302Y27487988D01*
X14230983Y27721637D01*
X14528363Y28019017D01*
X14762012Y28368698D01*
X14922953Y28757244D01*
X15005000Y29169721D01*
X15005000Y29590279D01*
X14983652Y29697602D01*
X15936051Y30650000D01*
X19684299Y30650000D01*
X19729463Y30565506D01*
X19808815Y30468815D01*
X19905506Y30389463D01*
X20015820Y30330498D01*
X20135518Y30294188D01*
X20260000Y30281928D01*
X23260000Y30281928D01*
X23384482Y30294188D01*
X23504180Y30330498D01*
X23504816Y30330838D01*
X23574017Y30261637D01*
X23923698Y30027988D01*
X24312244Y29867047D01*
X24724721Y29785000D01*
X25145279Y29785000D01*
X25557756Y29867047D01*
X25946302Y30027988D01*
X26295983Y30261637D01*
X26593363Y30559017D01*
X26827012Y30908698D01*
X26987953Y31297244D01*
X27070000Y31709721D01*
X27070000Y32130279D01*
X26987953Y32542756D01*
X26827012Y32931302D01*
X26593363Y33280983D01*
X26295983Y33578363D01*
X25946302Y33812012D01*
X25914946Y33825000D01*
X29380001Y33825000D01*
X29380001Y33558072D01*
G37*
X29380001Y33558072D02*
X29150000Y33558072D01*
X29025518Y33545812D01*
X28905820Y33509502D01*
X28795506Y33450537D01*
X28698815Y33371185D01*
X28619463Y33274494D01*
X28560498Y33164180D01*
X28524188Y33044482D01*
X28511928Y32920000D01*
X28511928Y30920000D01*
X28524188Y30795518D01*
X28560498Y30675820D01*
X28574299Y30650000D01*
X27537372Y30650000D01*
X27474999Y30656143D01*
X27412626Y30650000D01*
X27412620Y30650000D01*
X27251755Y30634156D01*
X27226036Y30631623D01*
X27153416Y30609594D01*
X26986641Y30559003D01*
X26766012Y30441075D01*
X26572630Y30282370D01*
X26532865Y30233916D01*
X25351086Y29052136D01*
X25302631Y29012370D01*
X25143926Y28818988D01*
X25104921Y28746014D01*
X25025998Y28598359D01*
X24953377Y28358963D01*
X24928857Y28110000D01*
X24935001Y28047617D01*
X24935000Y20381051D01*
X23891348Y19337399D01*
X23871343Y19540516D01*
X23777852Y19848715D01*
X23626031Y20132752D01*
X23421714Y20381714D01*
X23289767Y20490000D01*
X23421714Y20598286D01*
X23626031Y20847248D01*
X23777852Y21131285D01*
X23871343Y21439484D01*
X23902911Y21760000D01*
X23871343Y22080516D01*
X23777852Y22388715D01*
X23626031Y22672752D01*
X23421714Y22921714D01*
X23289767Y23030000D01*
X23421714Y23138286D01*
X23626031Y23387248D01*
X23777852Y23671285D01*
X23871343Y23979484D01*
X23902911Y24300000D01*
X23871343Y24620516D01*
X23777852Y24928715D01*
X23626031Y25212752D01*
X23421714Y25461714D01*
X23289767Y25570000D01*
X23421714Y25678286D01*
X23626031Y25927248D01*
X23777852Y26211285D01*
X23871343Y26519484D01*
X23902911Y26840000D01*
X23871343Y27160516D01*
X23777852Y27468715D01*
X23626031Y27752752D01*
X23421714Y28001714D01*
X23172752Y28206031D01*
X22888715Y28357852D01*
X22580516Y28451343D01*
X22340322Y28475000D01*
X21179678Y28475000D01*
X20939484Y28451343D01*
X20631285Y28357852D01*
X20347248Y28206031D01*
X20188376Y28075648D01*
X20001641Y28019003D01*
X19781012Y27901075D01*
X19587630Y27742370D01*
X19547863Y27693914D01*
X11191348Y19337398D01*
X11171343Y19540516D01*
X11077852Y19848715D01*
X10926031Y20132752D01*
X10721714Y20381714D01*
X10589767Y20490000D01*
X10721714Y20598286D01*
X10926031Y20847248D01*
X11077852Y21131285D01*
X11171343Y21439484D01*
X11202911Y21760000D01*
X11171343Y22080516D01*
X11077852Y22388715D01*
X10926031Y22672752D01*
X10721714Y22921714D01*
X10589767Y23030000D01*
X10721714Y23138286D01*
X10926031Y23387248D01*
X11077852Y23671285D01*
X11171343Y23979484D01*
X11202911Y24300000D01*
X11171343Y24620516D01*
X11077852Y24928715D01*
X10926031Y25212752D01*
X10721714Y25461714D01*
X10589767Y25570000D01*
X10721714Y25678286D01*
X10926031Y25927248D01*
X11077852Y26211285D01*
X11171343Y26519484D01*
X11202911Y26840000D01*
X11171343Y27160516D01*
X11077852Y27468715D01*
X10926031Y27752752D01*
X10721714Y28001714D01*
X10589767Y28110000D01*
X10721714Y28218286D01*
X10926031Y28467248D01*
X10932305Y28478986D01*
X10977988Y28368698D01*
X11211637Y28019017D01*
X11509017Y27721637D01*
X11858698Y27487988D01*
X12247244Y27327047D01*
X12659721Y27245000D01*
X13080279Y27245000D01*
X13492756Y27327047D01*
X13881302Y27487988D01*
X14230983Y27721637D01*
X14528363Y28019017D01*
X14762012Y28368698D01*
X14922953Y28757244D01*
X15005000Y29169721D01*
X15005000Y29590279D01*
X14983652Y29697602D01*
X15936051Y30650000D01*
X19684299Y30650000D01*
X19729463Y30565506D01*
X19808815Y30468815D01*
X19905506Y30389463D01*
X20015820Y30330498D01*
X20135518Y30294188D01*
X20260000Y30281928D01*
X23260000Y30281928D01*
X23384482Y30294188D01*
X23504180Y30330498D01*
X23504816Y30330838D01*
X23574017Y30261637D01*
X23923698Y30027988D01*
X24312244Y29867047D01*
X24724721Y29785000D01*
X25145279Y29785000D01*
X25557756Y29867047D01*
X25946302Y30027988D01*
X26295983Y30261637D01*
X26593363Y30559017D01*
X26827012Y30908698D01*
X26987953Y31297244D01*
X27070000Y31709721D01*
X27070000Y32130279D01*
X26987953Y32542756D01*
X26827012Y32931302D01*
X26593363Y33280983D01*
X26295983Y33578363D01*
X25946302Y33812012D01*
X25914946Y33825000D01*
X29380001Y33825000D01*
X29380001Y33558072D01*
G36*
X23030000Y63570245D02*
G01*
X22501101Y63041346D01*
X22356031Y63312752D01*
X22151714Y63561714D01*
X21902752Y63766031D01*
X21618715Y63917852D01*
X21310516Y64011343D01*
X21070322Y64035000D01*
X19909678Y64035000D01*
X19669484Y64011343D01*
X19361285Y63917852D01*
X19077248Y63766031D01*
X18828286Y63561714D01*
X18623969Y63312752D01*
X18472148Y63028715D01*
X18378657Y62720516D01*
X18347089Y62400000D01*
X18378657Y62079484D01*
X18472148Y61771285D01*
X18623969Y61487248D01*
X18828286Y61238286D01*
X18960233Y61130000D01*
X18828286Y61021714D01*
X18623969Y60772752D01*
X18472148Y60488715D01*
X18378657Y60180516D01*
X18347089Y59860000D01*
X18378657Y59539484D01*
X18472148Y59231285D01*
X18623969Y58947248D01*
X18828286Y58698286D01*
X19077248Y58493969D01*
X19361285Y58342148D01*
X19669484Y58248657D01*
X19909678Y58225000D01*
X21070322Y58225000D01*
X21310516Y58248657D01*
X21618715Y58342148D01*
X21902752Y58493969D01*
X22151714Y58698286D01*
X22356031Y58947248D01*
X22507852Y59231285D01*
X22601343Y59539484D01*
X22602436Y59550580D01*
X25153915Y62102058D01*
X25202370Y62141824D01*
X25361075Y62335206D01*
X25479003Y62555835D01*
X25548834Y62786037D01*
X25551623Y62795230D01*
X25569094Y62972620D01*
X25570000Y62981814D01*
X25570000Y62981820D01*
X25570001Y62981829D01*
X25570000Y58886051D01*
X22733950Y56050000D01*
X22019767Y56050000D01*
X21902752Y56146031D01*
X21618715Y56297852D01*
X21310516Y56391343D01*
X21070322Y56415000D01*
X19909678Y56415000D01*
X19669484Y56391343D01*
X19361285Y56297852D01*
X19077248Y56146031D01*
X18828286Y55941714D01*
X18623969Y55692752D01*
X18472148Y55408715D01*
X18378657Y55100516D01*
X18347089Y54780000D01*
X18378657Y54459484D01*
X18419954Y54323347D01*
X18160279Y54375000D01*
X17739721Y54375000D01*
X17327244Y54292953D01*
X16938698Y54132012D01*
X16589017Y53898363D01*
X16291637Y53600983D01*
X16057988Y53251302D01*
X15897047Y52862756D01*
X15815000Y52450279D01*
X15815000Y52029721D01*
X15897047Y51617244D01*
X15964560Y51454252D01*
X12870000Y54548812D01*
X12870000Y64680234D01*
X12978286Y64548286D01*
X13227248Y64343969D01*
X13511285Y64192148D01*
X13819484Y64098657D01*
X14140000Y64067089D01*
X14460515Y64098657D01*
X14768714Y64192148D01*
X15052751Y64343969D01*
X15301714Y64548286D01*
X15410000Y64680234D01*
X15518286Y64548286D01*
X15767248Y64343969D01*
X16051285Y64192148D01*
X16359484Y64098657D01*
X16680000Y64067089D01*
X17000515Y64098657D01*
X17308714Y64192148D01*
X17592751Y64343969D01*
X17841714Y64548286D01*
X17950000Y64680234D01*
X18058286Y64548286D01*
X18307248Y64343969D01*
X18591285Y64192148D01*
X18899484Y64098657D01*
X19220000Y64067089D01*
X19540515Y64098657D01*
X19848714Y64192148D01*
X20132751Y64343969D01*
X20381714Y64548286D01*
X20490000Y64680234D01*
X20598286Y64548286D01*
X20847248Y64343969D01*
X21131285Y64192148D01*
X21439484Y64098657D01*
X21760000Y64067089D01*
X22080515Y64098657D01*
X22388714Y64192148D01*
X22672751Y64343969D01*
X22921714Y64548286D01*
X23030000Y64680234D01*
X23030000Y63570245D01*
G37*
X23030000Y63570245D02*
X22501101Y63041346D01*
X22356031Y63312752D01*
X22151714Y63561714D01*
X21902752Y63766031D01*
X21618715Y63917852D01*
X21310516Y64011343D01*
X21070322Y64035000D01*
X19909678Y64035000D01*
X19669484Y64011343D01*
X19361285Y63917852D01*
X19077248Y63766031D01*
X18828286Y63561714D01*
X18623969Y63312752D01*
X18472148Y63028715D01*
X18378657Y62720516D01*
X18347089Y62400000D01*
X18378657Y62079484D01*
X18472148Y61771285D01*
X18623969Y61487248D01*
X18828286Y61238286D01*
X18960233Y61130000D01*
X18828286Y61021714D01*
X18623969Y60772752D01*
X18472148Y60488715D01*
X18378657Y60180516D01*
X18347089Y59860000D01*
X18378657Y59539484D01*
X18472148Y59231285D01*
X18623969Y58947248D01*
X18828286Y58698286D01*
X19077248Y58493969D01*
X19361285Y58342148D01*
X19669484Y58248657D01*
X19909678Y58225000D01*
X21070322Y58225000D01*
X21310516Y58248657D01*
X21618715Y58342148D01*
X21902752Y58493969D01*
X22151714Y58698286D01*
X22356031Y58947248D01*
X22507852Y59231285D01*
X22601343Y59539484D01*
X22602436Y59550580D01*
X25153915Y62102058D01*
X25202370Y62141824D01*
X25361075Y62335206D01*
X25479003Y62555835D01*
X25548834Y62786037D01*
X25551623Y62795230D01*
X25569094Y62972620D01*
X25570000Y62981814D01*
X25570000Y62981820D01*
X25570001Y62981829D01*
X25570000Y58886051D01*
X22733950Y56050000D01*
X22019767Y56050000D01*
X21902752Y56146031D01*
X21618715Y56297852D01*
X21310516Y56391343D01*
X21070322Y56415000D01*
X19909678Y56415000D01*
X19669484Y56391343D01*
X19361285Y56297852D01*
X19077248Y56146031D01*
X18828286Y55941714D01*
X18623969Y55692752D01*
X18472148Y55408715D01*
X18378657Y55100516D01*
X18347089Y54780000D01*
X18378657Y54459484D01*
X18419954Y54323347D01*
X18160279Y54375000D01*
X17739721Y54375000D01*
X17327244Y54292953D01*
X16938698Y54132012D01*
X16589017Y53898363D01*
X16291637Y53600983D01*
X16057988Y53251302D01*
X15897047Y52862756D01*
X15815000Y52450279D01*
X15815000Y52029721D01*
X15897047Y51617244D01*
X15964560Y51454252D01*
X12870000Y54548812D01*
X12870000Y64680234D01*
X12978286Y64548286D01*
X13227248Y64343969D01*
X13511285Y64192148D01*
X13819484Y64098657D01*
X14140000Y64067089D01*
X14460515Y64098657D01*
X14768714Y64192148D01*
X15052751Y64343969D01*
X15301714Y64548286D01*
X15410000Y64680234D01*
X15518286Y64548286D01*
X15767248Y64343969D01*
X16051285Y64192148D01*
X16359484Y64098657D01*
X16680000Y64067089D01*
X17000515Y64098657D01*
X17308714Y64192148D01*
X17592751Y64343969D01*
X17841714Y64548286D01*
X17950000Y64680234D01*
X18058286Y64548286D01*
X18307248Y64343969D01*
X18591285Y64192148D01*
X18899484Y64098657D01*
X19220000Y64067089D01*
X19540515Y64098657D01*
X19848714Y64192148D01*
X20132751Y64343969D01*
X20381714Y64548286D01*
X20490000Y64680234D01*
X20598286Y64548286D01*
X20847248Y64343969D01*
X21131285Y64192148D01*
X21439484Y64098657D01*
X21760000Y64067089D01*
X22080515Y64098657D01*
X22388714Y64192148D01*
X22672751Y64343969D01*
X22921714Y64548286D01*
X23030000Y64680234D01*
X23030000Y63570245D01*
M02*
